<?xml version="1.0" encoding="UTF-8"?>
<!DOCTYPE svg PUBLIC "-//W3C//DTD SVG 1.1//EN" "http://www.w3.org/Graphics/SVG/1.1/DTD/svg11.dtd">
<svg xmlns="http://www.w3.org/2000/svg" version="1.1" width="505px" height="249px" style="shape-rendering:geometricPrecision; text-rendering:geometricPrecision; image-rendering:optimizeQuality; fill-rule:evenodd; clip-rule:evenodd" xmlns:xlink="http://www.w3.org/1999/xlink">
<g><path style="opacity:1" fill="#6eaaf9" d="M 138.5,14.5 C 139.15,16.4352 139.483,18.4352 139.5,20.5C 135.705,24.807 132.705,24.1403 130.5,18.5C 131.692,13.903 134.359,12.5697 138.5,14.5 Z"/></g>
<g><path style="opacity:0.2" fill="#c7e2fe" d="M 138.5,14.5 C 139.947,15.1342 140.613,16.3009 140.5,18C 140.472,19.0698 140.139,19.9032 139.5,20.5C 139.483,18.4352 139.15,16.4352 138.5,14.5 Z"/></g>
<g><path style="opacity:0.263" fill="#c7e2fd" d="M 180.5,17.5 C 176.167,17.1667 174.167,19.1667 174.5,23.5C 172.568,19.7264 173.735,17.3931 178,16.5C 179.07,16.528 179.903,16.8614 180.5,17.5 Z"/></g>
<g><path style="opacity:0.663" fill="#b3d7fc" d="M 118.5,18.5 C 116.379,18.3253 114.379,18.6586 112.5,19.5C 114.253,16.5642 116.253,16.2309 118.5,18.5 Z"/></g>
<g><path style="opacity:0.184" fill="#c8e3fd" d="M 160.5,19.5 C 158.167,18.1667 155.833,18.1667 153.5,19.5C 154.134,18.0532 155.301,17.3866 157,17.5C 158.699,17.3866 159.866,18.0532 160.5,19.5 Z"/></g>
<g><path style="opacity:0.999" fill="#509ef8" d="M 118.5,18.5 C 118.833,19.5 119.5,20.1667 120.5,20.5C 121.451,21.9187 121.784,23.5853 121.5,25.5C 121.054,28.0101 121.72,30.0101 123.5,31.5C 124.388,34.0545 124.721,36.7212 124.5,39.5C 122.097,39.552 119.764,39.2186 117.5,38.5C 117.771,36.6203 117.104,35.287 115.5,34.5C 113.39,33.5475 112.223,31.8808 112,29.5C 111.192,25.9733 111.359,22.6399 112.5,19.5C 114.379,18.6586 116.379,18.3253 118.5,18.5 Z"/></g>
<g><path style="opacity:0.016" fill="#d4e8fd" d="M 118.5,18.5 C 119.833,18.5 120.5,19.1667 120.5,20.5C 119.5,20.1667 118.833,19.5 118.5,18.5 Z"/></g>
<g><path style="opacity:0.999" fill="#69a8f9" d="M 180.5,17.5 C 184.807,21.2953 184.14,24.2953 178.5,26.5C 176.347,26.4387 175.014,25.4387 174.5,23.5C 174.167,19.1667 176.167,17.1667 180.5,17.5 Z"/></g>
<g><path style="opacity:0.999" fill="#64a6f9" d="M 160.5,19.5 C 161.742,22.7402 161.576,26.0736 160,29.5C 157.095,33.327 154.095,33.327 151,29.5C 150.028,25.6319 150.861,22.2985 153.5,19.5C 155.833,18.1667 158.167,18.1667 160.5,19.5 Z"/></g>
<g><path style="opacity:0.004" fill="#c0ddfd" d="M 85.5,28.5 C 83.1216,26.2433 80.4549,25.91 77.5,27.5C 78.3121,26.0069 79.6455,25.3402 81.5,25.5C 83.9818,25.1104 85.3152,26.1104 85.5,28.5 Z"/></g>
<g><path style="opacity:0.999" fill="#509ef8" d="M 85.5,28.5 C 86.5,28.8333 87.1667,29.5 87.5,30.5C 87.427,32.0269 88.0937,33.0269 89.5,33.5C 90.1495,35.4352 90.4828,37.4352 90.5,39.5C 90.5,40.1667 90.1667,40.5 89.5,40.5C 86.5491,40.7128 83.8825,40.0461 81.5,38.5C 77.5357,35.6084 76.2024,31.9417 77.5,27.5C 80.4549,25.91 83.1216,26.2433 85.5,28.5 Z"/></g>
<g><path style="opacity:0.788" fill="#b1d4fc" d="M 121.5,25.5 C 122.458,27.3024 123.125,29.3024 123.5,31.5C 121.72,30.0101 121.054,28.0101 121.5,25.5 Z"/></g>
<g><path style="opacity:0.659" fill="#b5d8fd" d="M 87.5,30.5 C 88.9063,30.9731 89.573,31.9731 89.5,33.5C 88.0937,33.0269 87.427,32.0269 87.5,30.5 Z"/></g>
<g><path style="opacity:0.78" fill="#b7d8fc" d="M 197.5,31.5 C 195.315,31.7036 193.315,32.3702 191.5,33.5C 192.92,30.6511 194.92,29.9844 197.5,31.5 Z"/></g>
<g><path style="opacity:1" fill="#4b9cf8" d="M 197.5,31.5 C 198.219,33.7638 198.552,36.0971 198.5,38.5C 197.094,38.9731 196.427,39.9731 196.5,41.5C 195.564,42.9744 194.23,43.9744 192.5,44.5C 190.833,43.8333 189.167,43.1667 187.5,42.5C 187.4,39.8915 188.067,37.5582 189.5,35.5C 189.833,34.5 190.5,33.8333 191.5,33.5C 193.315,32.3702 195.315,31.7036 197.5,31.5 Z"/></g>
<g><path style="opacity:0.98" fill="#a4c9fb" d="M 123.5,31.5 C 125.586,32.1485 126.586,33.6485 126.5,36C 126.613,37.6991 125.947,38.8658 124.5,39.5C 124.721,36.7212 124.388,34.0545 123.5,31.5 Z"/></g>
<g><path style="opacity:0.847" fill="#a8cffc" d="M 155.5,36.5 C 153.283,35.6314 150.95,35.298 148.5,35.5C 151.32,32.6653 153.653,32.9987 155.5,36.5 Z"/></g>
<g><path style="opacity:0.239" fill="#d5e9fd" d="M 167.5,35.5 C 168.097,34.8614 168.93,34.528 170,34.5C 171.699,34.3866 172.866,35.0532 173.5,36.5C 171.565,35.8505 169.565,35.5172 167.5,35.5 Z"/></g>
<g><path style="opacity:0.208" fill="#cee4fd" d="M 89.5,33.5 C 90.9468,34.1342 91.6134,35.3009 91.5,37C 91.472,38.0698 91.1386,38.9032 90.5,39.5C 90.4828,37.4352 90.1495,35.4352 89.5,33.5 Z"/></g>
<g><path style="opacity:0.999" fill="#59a2f9" d="M 148.5,35.5 C 150.95,35.298 153.283,35.6314 155.5,36.5C 156.5,37.5 157.5,38.5 158.5,39.5C 159.795,40.4884 161.128,41.4884 162.5,42.5C 164.016,45.0804 163.349,47.0804 160.5,48.5C 159.167,48.5 157.833,48.5 156.5,48.5C 155.5,48.1667 154.833,47.5 154.5,46.5C 154.616,43.0897 152.95,41.7564 149.5,42.5C 148.007,41.6879 147.34,40.3545 147.5,38.5C 147.52,37.2739 147.853,36.2739 148.5,35.5 Z"/></g>
<g><path style="opacity:0.839" fill="#89c0fb" d="M 197.5,31.5 C 198.993,32.3121 199.66,33.6455 199.5,35.5C 199.48,36.7261 199.147,37.7261 198.5,38.5C 198.552,36.0971 198.219,33.7638 197.5,31.5 Z"/></g>
<g><path style="opacity:0.247" fill="#d3e8fe" d="M 115.5,34.5 C 117.104,35.287 117.771,36.6203 117.5,38.5C 116.326,37.4863 115.66,36.153 115.5,34.5 Z"/></g>
<g><path style="opacity:0.999" fill="#62a5f9" d="M 167.5,35.5 C 169.565,35.5172 171.565,35.8505 173.5,36.5C 175.675,42.652 173.675,44.9853 167.5,43.5C 166.167,40.8333 166.167,38.1667 167.5,35.5 Z"/></g>
<g><path style="opacity:0.999" fill="#56a0f9" d="M 142.5,36.5 C 144.168,38.4786 144.834,40.812 144.5,43.5C 144.5,44.1667 144.167,44.5 143.5,44.5C 141.5,44.5 139.5,44.5 137.5,44.5C 137.5,42.1667 137.5,39.8333 137.5,37.5C 138.995,35.655 140.662,35.3217 142.5,36.5 Z"/></g>
<g><path style="opacity:0.922" fill="#add0fc" d="M 167.5,35.5 C 166.167,38.1667 166.167,40.8333 167.5,43.5C 165.561,42.9862 164.561,41.6528 164.5,39.5C 164.561,37.3472 165.561,36.0138 167.5,35.5 Z"/></g>
<g><path style="opacity:0.608" fill="#abd2fc" d="M 117.5,38.5 C 119.764,39.2186 122.097,39.552 124.5,39.5C 123.726,40.1471 122.726,40.4805 121.5,40.5C 119.645,40.6598 118.312,39.9931 117.5,38.5 Z"/></g>
<g><path style="opacity:0.243" fill="#c5e1fe" d="M 158.5,39.5 C 160.973,39.0882 162.306,40.0882 162.5,42.5C 161.128,41.4884 159.795,40.4884 158.5,39.5 Z"/></g>
<g><path style="opacity:0.008" fill="#d4e7fd" d="M 198.5,38.5 C 198.573,40.0269 197.906,41.0269 196.5,41.5C 196.427,39.9731 197.094,38.9731 198.5,38.5 Z"/></g>
<g><path style="opacity:0.675" fill="#a9d1fc" d="M 81.5,38.5 C 83.8825,40.0461 86.5491,40.7128 89.5,40.5C 86.282,42.1839 83.6154,41.5172 81.5,38.5 Z"/></g>
<g><path style="opacity:0.871" fill="#aed0fc" d="M 137.5,37.5 C 137.5,39.8333 137.5,42.1667 137.5,44.5C 134.833,42.1667 134.833,39.8333 137.5,37.5 Z"/></g>
<g><path style="opacity:0.69" fill="#afd4fc" d="M 142.5,36.5 C 143.496,36.4142 144.329,36.7476 145,37.5C 145.789,39.7116 145.622,41.7116 144.5,43.5C 144.834,40.812 144.168,38.4786 142.5,36.5 Z"/></g>
<g><path style="opacity:0.998" fill="#65a6f9" d="M 184.5,40.5 C 185.219,42.7638 185.552,45.0971 185.5,47.5C 184.866,48.9468 183.699,49.6134 182,49.5C 180.301,49.6134 179.134,48.9468 178.5,47.5C 178.5,45.5 178.5,43.5 178.5,41.5C 179.134,40.0532 180.301,39.3866 182,39.5C 183.07,39.528 183.903,39.8614 184.5,40.5 Z"/></g>
<g><path style="opacity:0.749" fill="#a5cdfc" d="M 149.5,42.5 C 152.95,41.7564 154.616,43.0897 154.5,46.5C 153.374,44.4637 151.707,43.1303 149.5,42.5 Z"/></g>
<g><path style="opacity:0.741" fill="#aacdfc" d="M 187.5,42.5 C 189.167,43.1667 190.833,43.8333 192.5,44.5C 190.257,45.8584 188.591,45.1917 187.5,42.5 Z"/></g>
<g><path style="opacity:0.749" fill="#a6cffc" d="M 137.5,44.5 C 139.5,44.5 141.5,44.5 143.5,44.5C 141.642,46.7311 139.642,46.7311 137.5,44.5 Z"/></g>
<g><path style="opacity:0.855" fill="#a0c9fb" d="M 178.5,41.5 C 178.5,43.5 178.5,45.5 178.5,47.5C 176.006,45.406 176.006,43.406 178.5,41.5 Z"/></g>
<g><path style="opacity:0.596" fill="#a7cffc" d="M 189.5,35.5 C 188.067,37.5582 187.4,39.8915 187.5,42.5C 186.833,44.1667 186.167,45.8333 185.5,47.5C 185.552,45.0971 185.219,42.7638 184.5,40.5C 185.117,40.6107 185.617,40.944 186,41.5C 186.006,38.7356 187.172,36.7356 189.5,35.5 Z"/></g>
<g><path style="opacity:0.831" fill="#a8cefc" d="M 126.5,46.5 C 124.5,46.5 122.5,46.5 120.5,46.5C 122.594,44.0062 124.594,44.0062 126.5,46.5 Z"/></g>
<g><path style="opacity:0.999" fill="#65a7f9" d="M 120.5,46.5 C 122.5,46.5 124.5,46.5 126.5,46.5C 127.947,47.1342 128.613,48.3009 128.5,50C 128.613,51.6991 127.947,52.8658 126.5,53.5C 124.097,53.552 121.764,53.2186 119.5,52.5C 118.861,51.9032 118.528,51.0698 118.5,50C 118.387,48.3009 119.053,47.1342 120.5,46.5 Z"/></g>
<g><path style="opacity:0.133" fill="#d1e7fd" d="M 108.5,48.5 C 106.784,48.6287 105.117,48.962 103.5,49.5C 104.879,47.4031 106.545,47.0698 108.5,48.5 Z"/></g>
<g><path style="opacity:0.999" fill="#60a4f9" d="M 207.5,46.5 C 208.219,48.7638 208.552,51.0971 208.5,53.5C 207.866,54.9468 206.699,55.6134 205,55.5C 203.301,55.6134 202.134,54.9468 201.5,53.5C 201.166,50.812 201.832,48.4786 203.5,46.5C 204.833,45.1667 206.167,45.1667 207.5,46.5 Z"/></g>
<g><path style="opacity:0.999" fill="#4e9ff8" d="M 108.5,48.5 C 108.833,48.5 109.167,48.5 109.5,48.5C 110.219,50.7638 110.552,53.0971 110.5,55.5C 110.5,56.1667 110.167,56.5 109.5,56.5C 107.833,56.5 106.167,56.5 104.5,56.5C 103.007,55.6879 102.34,54.3545 102.5,52.5C 102.52,51.2739 102.853,50.2739 103.5,49.5C 105.117,48.962 106.784,48.6287 108.5,48.5 Z"/></g>
<g><path style="opacity:0.825" fill="#a9cffc" d="M 146.5,50.5 C 144.379,50.3253 142.379,50.6586 140.5,51.5C 140.884,49.7074 142.05,48.7074 144,48.5C 145.301,48.6387 146.134,49.3054 146.5,50.5 Z"/></g>
<g><path style="opacity:0.608" fill="#c2defd" d="M 156.5,48.5 C 157.833,48.5 159.167,48.5 160.5,48.5C 161.263,49.2679 162.263,49.7679 163.5,50C 164.252,50.6708 164.586,51.5041 164.5,52.5C 162.521,50.8325 160.188,50.1658 157.5,50.5C 157.167,49.8333 156.833,49.1667 156.5,48.5 Z"/></g>
<g><path style="opacity:1" fill="#60a4f9" d="M 69.5,50.5 C 70.2186,52.7638 70.552,55.0971 70.5,57.5C 69.5081,59.0265 68.0081,59.6932 66,59.5C 63.4528,59.2382 60.9528,58.7382 58.5,58C 55.0339,55.3388 54.7006,52.3388 57.5,49C 61.7809,48.2015 65.7809,48.7015 69.5,50.5 Z"/></g>
<g><path style="opacity:0.999" fill="#529ff8" d="M 146.5,50.5 C 147.947,51.1342 148.613,52.3009 148.5,54C 148.613,55.6991 147.947,56.8658 146.5,57.5C 144.5,57.5 142.5,57.5 140.5,57.5C 140.5,58.5 140.5,59.5 140.5,60.5C 140.672,61.4916 140.338,62.1583 139.5,62.5C 137.5,62.5 135.5,62.5 133.5,62.5C 132.053,61.8658 131.387,60.6991 131.5,59C 131.387,57.3009 132.053,56.1342 133.5,55.5C 137.222,56.3201 139.555,54.9868 140.5,51.5C 142.379,50.6586 144.379,50.3253 146.5,50.5 Z"/></g>
<g><path style="opacity:0.999" fill="#539ff8" d="M 157.5,50.5 C 160.188,50.1658 162.521,50.8325 164.5,52.5C 165.93,54.4547 165.597,56.1214 163.5,57.5C 162.285,58.779 162.618,59.779 164.5,60.5C 164.5,62.5 164.5,64.5 164.5,66.5C 162.05,66.702 159.717,66.3686 157.5,65.5C 157.247,63.1727 157.914,61.1727 159.5,59.5C 159.376,58.8933 159.043,58.56 158.5,58.5C 155.024,56.1409 154.691,53.4742 157.5,50.5 Z"/></g>
<g><path style="opacity:0.573" fill="#b5d8fc" d="M 203.5,46.5 C 201.832,48.4786 201.166,50.812 201.5,53.5C 200.378,51.7116 200.211,49.7116 201,47.5C 201.671,46.7476 202.504,46.4142 203.5,46.5 Z"/></g>
<g><path style="opacity:0.867" fill="#a3cafb" d="M 207.5,46.5 C 210.68,48.6346 211.014,50.9679 208.5,53.5C 208.552,51.0971 208.219,48.7638 207.5,46.5 Z"/></g>
<g><path style="opacity:0.686" fill="#a0ccfb" d="M 109.5,48.5 C 110.993,49.3121 111.66,50.6455 111.5,52.5C 111.48,53.7261 111.147,54.7261 110.5,55.5C 110.552,53.0971 110.219,50.7638 109.5,48.5 Z"/></g>
<g><path style="opacity:0.773" fill="#a7cffc" d="M 119.5,52.5 C 121.764,53.2186 124.097,53.552 126.5,53.5C 123.905,56.0672 121.572,55.7339 119.5,52.5 Z"/></g>
<g><path style="opacity:0.357" fill="#b7d9fc" d="M 183.5,54.5 C 181.435,54.5172 179.435,54.8505 177.5,55.5C 178.134,54.0532 179.301,53.3866 181,53.5C 182.07,53.528 182.903,53.8614 183.5,54.5 Z"/></g>
<g><path style="opacity:0.843" fill="#99c6fb" d="M 69.5,50.5 C 72.7339,52.5717 73.0672,54.905 70.5,57.5C 70.552,55.0971 70.2186,52.7638 69.5,50.5 Z"/></g>
<g><path style="opacity:0.649" fill="#9eccfc" d="M 140.5,51.5 C 139.555,54.9868 137.222,56.3201 133.5,55.5C 136.175,54.8971 138.508,53.5638 140.5,51.5 Z"/></g>
<g><path style="opacity:1" fill="#509ff8" d="M 183.5,54.5 C 184.167,54.5 184.5,54.8333 184.5,55.5C 184.5,57.5 184.5,59.5 184.5,61.5C 184.5,62.1667 184.167,62.5 183.5,62.5C 181.435,62.4828 179.435,62.1495 177.5,61.5C 176.167,59.5 176.167,57.5 177.5,55.5C 179.435,54.8505 181.435,54.5172 183.5,54.5 Z"/></g>
<g><path style="opacity:0.088" fill="#c8e1fd" d="M 104.5,56.5 C 106.167,56.5 107.833,56.5 109.5,56.5C 108.167,57.5 108.167,58.5 109.5,59.5C 107.5,59.5 105.5,59.5 103.5,59.5C 104.11,58.609 104.443,57.609 104.5,56.5 Z"/></g>
<g><path style="opacity:0.482" fill="#b8dbfc" d="M 146.5,57.5 C 144.361,58.1581 142.361,59.1581 140.5,60.5C 140.5,59.5 140.5,58.5 140.5,57.5C 142.5,57.5 144.5,57.5 146.5,57.5 Z"/></g>
<g><path style="opacity:0.867" fill="#a2cafb" d="M 184.5,55.5 C 187.167,57.5 187.167,59.5 184.5,61.5C 184.5,59.5 184.5,57.5 184.5,55.5 Z"/></g>
<g><path style="opacity:0.831" fill="#9cc9fb" d="M 197.5,61.5 C 195.521,59.8325 193.188,59.1658 190.5,59.5C 192.139,57.0578 194.139,56.8911 196.5,59C 197.252,59.6708 197.586,60.5041 197.5,61.5 Z"/></g>
<g><path style="opacity:0.999" fill="#64a6f9" d="M 103.5,59.5 C 105.5,59.5 107.5,59.5 109.5,59.5C 110.947,60.1342 111.613,61.3009 111.5,63C 111.613,64.6991 110.947,65.8658 109.5,66.5C 107.097,66.552 104.764,66.2186 102.5,65.5C 100.938,63.0993 101.271,61.0993 103.5,59.5 Z"/></g>
<g><path style="opacity:0.396" fill="#b1d6fc" d="M 163.5,57.5 C 164.11,58.391 164.443,59.391 164.5,60.5C 162.618,59.779 162.285,58.779 163.5,57.5 Z"/></g>
<g><path style="opacity:1" fill="#4299f8" d="M 190.5,59.5 C 193.188,59.1658 195.521,59.8325 197.5,61.5C 197.611,62.1174 197.944,62.6174 198.5,63C 202.833,63.3333 207.167,63.6667 211.5,64C 212.768,66.1632 212.768,68.3298 211.5,70.5C 210.791,71.404 209.791,71.7373 208.5,71.5C 204.102,71.7059 199.768,71.3726 195.5,70.5C 195.5,68.5 194.5,67.5 192.5,67.5C 192.027,66.0937 191.027,65.427 189.5,65.5C 188.861,64.9032 188.528,64.0698 188.5,63C 188.387,61.3009 189.053,60.1342 190.5,59.5 Z"/></g>
<g><path style="opacity:0.365" fill="#c4e1fd" d="M 86.5,60.5 C 83.4867,60.1072 80.8201,60.7739 78.5,62.5C 78.4142,61.5041 78.7476,60.6708 79.5,60C 82.0385,59.2042 84.3718,59.3709 86.5,60.5 Z"/></g>
<g><path style="opacity:1" fill="#489bf8" d="M 86.5,60.5 C 88.1675,62.4786 88.8342,64.812 88.5,67.5C 88.5,68.1667 88.1667,68.5 87.5,68.5C 84.2153,68.7896 81.2153,68.123 78.5,66.5C 77.3143,65.0387 77.3143,63.7054 78.5,62.5C 80.8201,60.7739 83.4867,60.1072 86.5,60.5 Z"/></g>
<g><path style="opacity:0.847" fill="#a4cbfc" d="M 133.5,62.5 C 135.5,62.5 137.5,62.5 139.5,62.5C 137.406,64.9938 135.406,64.9938 133.5,62.5 Z"/></g>
<g><path style="opacity:0.137" fill="#d9ebfe" d="M 177.5,61.5 C 179.435,62.1495 181.435,62.4828 183.5,62.5C 182.903,63.1386 182.07,63.472 181,63.5C 179.301,63.6134 178.134,62.9468 177.5,61.5 Z"/></g>
<g><path style="opacity:0.769" fill="#a5cefc" d="M 197.5,61.5 C 202.53,61.2561 207.53,61.7561 212.5,63C 215.266,66.018 214.932,68.518 211.5,70.5C 212.768,68.3298 212.768,66.1632 211.5,64C 207.167,63.6667 202.833,63.3333 198.5,63C 197.944,62.6174 197.611,62.1174 197.5,61.5 Z"/></g>
<g><path style="opacity:0.42" fill="#b5d8fc" d="M 158.5,58.5 C 159.043,58.56 159.376,58.8933 159.5,59.5C 157.914,61.1727 157.247,63.1727 157.5,65.5C 156.122,63.0298 156.455,60.6965 158.5,58.5 Z"/></g>
<g><path style="opacity:0.922" fill="#9ec8fb" d="M 164.5,60.5 C 167.167,62.5 167.167,64.5 164.5,66.5C 164.5,64.5 164.5,62.5 164.5,60.5 Z"/></g>
<g><path style="opacity:0.635" fill="#b2d7fd" d="M 86.5,60.5 C 87.4959,60.4142 88.3292,60.7476 89,61.5C 89.7891,63.7116 89.6225,65.7116 88.5,67.5C 88.8342,64.812 88.1675,62.4786 86.5,60.5 Z"/></g>
<g><path style="opacity:0.224" fill="#d0e7fd" d="M 55.5,66.5 C 52.7628,66.4013 50.0961,66.7347 47.5,67.5C 48.4919,65.9735 49.9919,65.3068 52,65.5C 53.3847,65.5143 54.5514,65.8476 55.5,66.5 Z"/></g>
<g><path style="opacity:0.525" fill="#b4d8fd" d="M 132.5,68.5 C 127.513,65.0843 124.846,66.4176 124.5,72.5C 122.85,66.6538 125.183,64.4871 131.5,66C 132.252,66.6708 132.586,67.5041 132.5,68.5 Z"/></g>
<g><path style="opacity:0.847" fill="#add1fc" d="M 153.5,67.5 C 151.283,66.6314 148.95,66.298 146.5,66.5C 149.32,63.6653 151.653,63.9987 153.5,67.5 Z"/></g>
<g><path style="opacity:0.696" fill="#aed4fc" d="M 102.5,65.5 C 104.764,66.2186 107.097,66.552 109.5,66.5C 106.905,69.0672 104.572,68.7339 102.5,65.5 Z"/></g>
<g><path style="opacity:0.995" fill="#5ba2f9" d="M 132.5,68.5 C 133.686,69.7054 133.686,71.0387 132.5,72.5C 131.5,72.8333 130.833,73.5 130.5,74.5C 127.803,76.0454 125.803,75.3787 124.5,72.5C 124.846,66.4176 127.513,65.0843 132.5,68.5 Z"/></g>
<g><path style="opacity:1" fill="#5aa3f9" d="M 146.5,66.5 C 148.95,66.298 151.283,66.6314 153.5,67.5C 155.432,71.2736 154.265,73.6069 150,74.5C 148.289,74.5607 146.956,73.8941 146,72.5C 145.211,70.2884 145.378,68.2884 146.5,66.5 Z"/></g>
<g><path style="opacity:0.951" fill="#a3c9fc" d="M 157.5,65.5 C 159.717,66.3686 162.05,66.702 164.5,66.5C 164.038,67.8799 163.038,68.5466 161.5,68.5C 159.347,68.4387 158.014,67.4387 157.5,65.5 Z"/></g>
<g><path style="opacity:0.816" fill="#afd3fc" d="M 173.5,67.5 C 171.167,67.5 168.833,67.5 166.5,67.5C 168.833,64.8333 171.167,64.8333 173.5,67.5 Z"/></g>
<g><path style="opacity:0.573" fill="#99c7fa" d="M 189.5,65.5 C 191.027,65.427 192.027,66.0937 192.5,67.5C 190.973,67.573 189.973,66.9063 189.5,65.5 Z"/></g>
<g><path style="opacity:1" fill="#5aa2f9" d="M 55.5,66.5 C 56.4916,66.3284 57.1583,66.6618 57.5,67.5C 57.5,69.8333 57.5,72.1667 57.5,74.5C 54.6965,75.6378 51.6965,75.8045 48.5,75C 45.0126,72.7605 44.6793,70.2605 47.5,67.5C 50.0961,66.7347 52.7628,66.4013 55.5,66.5 Z"/></g>
<g><path style="opacity:0.416" fill="#aed5fc" d="M 119.5,68.5 C 117.435,68.5172 115.435,68.8505 113.5,69.5C 114.134,68.0532 115.301,67.3866 117,67.5C 118.07,67.528 118.903,67.8614 119.5,68.5 Z"/></g>
<g><path style="opacity:0.999" fill="#539ff8" d="M 166.5,67.5 C 168.833,67.5 171.167,67.5 173.5,67.5C 173.5,69.5 173.5,71.5 173.5,73.5C 172,79.5011 169.667,85.1677 166.5,90.5C 165.5,90.8333 164.833,91.5 164.5,92.5C 162.435,92.4828 160.435,92.1495 158.5,91.5C 157.28,89.9504 157.28,88.2837 158.5,86.5C 160.834,84.8243 161.834,82.491 161.5,79.5C 161.66,77.847 162.326,76.5137 163.5,75.5C 166.172,73.6086 167.172,70.9419 166.5,67.5 Z"/></g>
<g><path style="opacity:0.447" fill="#c7e1fd" d="M 192.5,67.5 C 194.5,67.5 195.5,68.5 195.5,70.5C 194.167,69.8333 193.167,68.8333 192.5,67.5 Z"/></g>
<g><path style="opacity:0.494" fill="#b5d9fc" d="M 78.5,66.5 C 81.2153,68.123 84.2153,68.7896 87.5,68.5C 85.3718,69.6291 83.0385,69.7958 80.5,69C 79.6195,68.2917 78.9528,67.4584 78.5,66.5 Z"/></g>
<g><path style="opacity:0.994" fill="#5fa4f9" d="M 119.5,68.5 C 120.219,70.7638 120.552,73.0971 120.5,75.5C 118.935,77.7188 116.935,78.0521 114.5,76.5C 112.447,74.2712 112.114,71.9379 113.5,69.5C 115.435,68.8505 117.435,68.5172 119.5,68.5 Z"/></g>
<g><path style="opacity:0.882" fill="#a9cefc" d="M 57.5,67.5 C 60.1667,69.8333 60.1667,72.1667 57.5,74.5C 57.5,72.1667 57.5,69.8333 57.5,67.5 Z"/></g>
<g><path style="opacity:0.773" fill="#acd1fc" d="M 173.5,67.5 C 176.167,69.5 176.167,71.5 173.5,73.5C 173.5,71.5 173.5,69.5 173.5,67.5 Z"/></g>
<g><path style="opacity:0.999" fill="#56a1f9" d="M 186.5,70.5 C 187.219,72.7638 187.552,75.0971 187.5,77.5C 187.158,78.3382 186.492,78.6716 185.5,78.5C 183.708,78.634 182.042,78.3007 180.5,77.5C 180.5,75.5 180.5,73.5 180.5,71.5C 181.134,70.0532 182.301,69.3866 184,69.5C 185.07,69.528 185.903,69.8614 186.5,70.5 Z"/></g>
<g><path style="opacity:0.353" fill="#bcdcfc" d="M 195.5,70.5 C 199.768,71.3726 204.102,71.7059 208.5,71.5C 204.689,72.6453 200.689,72.8119 196.5,72C 195.944,71.6174 195.611,71.1174 195.5,70.5 Z"/></g>
<g><path style="opacity:0.827" fill="#97c5fb" d="M 119.5,68.5 C 122.734,70.5717 123.067,72.905 120.5,75.5C 120.552,73.0971 120.219,70.7638 119.5,68.5 Z"/></g>
<g><path style="opacity:0.998" fill="#3897f8" d="M 137.5,73.5 C 138.219,75.7638 138.552,78.0971 138.5,80.5C 132.338,81.8445 130.338,79.6778 132.5,74C 134.134,73.5065 135.801,73.3398 137.5,73.5 Z"/></g>
<g><path style="opacity:0.376" fill="#b7d9fd" d="M 166.5,67.5 C 167.172,70.9419 166.172,73.6086 163.5,75.5C 164.751,72.8677 165.751,70.201 166.5,67.5 Z"/></g>
<g><path style="opacity:0.857" fill="#a8cdfc" d="M 180.5,71.5 C 180.5,73.5 180.5,75.5 180.5,77.5C 178.006,75.406 178.006,73.406 180.5,71.5 Z"/></g>
<g><path style="opacity:0.686" fill="#a0ccfb" d="M 186.5,70.5 C 187.993,71.3121 188.66,72.6455 188.5,74.5C 188.48,75.7261 188.147,76.7261 187.5,77.5C 187.552,75.0971 187.219,72.7638 186.5,70.5 Z"/></g>
<g><path style="opacity:0.999" fill="#59a2f9" d="M 227.5,80.5 C 221.079,81.7522 219.079,79.4189 221.5,73.5C 227.675,72.0147 229.675,74.348 227.5,80.5 Z"/></g>
<g><path style="opacity:0.998" fill="#539ff9" d="M 105.5,75.5 C 105.702,77.9496 105.369,80.283 104.5,82.5C 102.435,82.4828 100.435,82.1495 98.5,81.5C 98.1658,78.812 98.8325,76.4786 100.5,74.5C 102.455,73.0698 104.121,73.4031 105.5,75.5 Z"/></g>
<g><path style="opacity:0.51" fill="#a6cffc" d="M 137.5,73.5 C 138.993,74.3121 139.66,75.6455 139.5,77.5C 139.48,78.7261 139.147,79.7261 138.5,80.5C 138.552,78.0971 138.219,75.7638 137.5,73.5 Z"/></g>
<g><path style="opacity:0.376" fill="#b5d8fc" d="M 198.5,76.5 C 196.435,76.5172 194.435,76.8505 192.5,77.5C 193.134,76.0532 194.301,75.3866 196,75.5C 197.07,75.528 197.903,75.8614 198.5,76.5 Z"/></g>
<g><path style="opacity:0.773" fill="#a7cffc" d="M 132.5,72.5 C 134.415,72.2155 136.081,72.5489 137.5,73.5C 135.801,73.3398 134.134,73.5065 132.5,74C 130.338,79.6778 132.338,81.8445 138.5,80.5C 136.419,82.8995 134.086,83.0662 131.5,81C 130.577,78.9592 130.244,76.7925 130.5,74.5C 130.833,73.5 131.5,72.8333 132.5,72.5 Z"/></g>
<g><path style="opacity:0.999" fill="#3f99f8" d="M 198.5,76.5 C 199.219,78.7638 199.552,81.0971 199.5,83.5C 199.5,84.1667 199.167,84.5 198.5,84.5C 193.677,84.6728 191.677,82.3394 192.5,77.5C 194.435,76.8505 196.435,76.5172 198.5,76.5 Z"/></g>
<g><path style="opacity:0.49" fill="#bfdefd" d="M 100.5,74.5 C 98.8325,76.4786 98.1658,78.812 98.5,81.5C 97.3775,79.7116 97.2109,77.7116 98,75.5C 98.6708,74.7476 99.5041,74.4142 100.5,74.5 Z"/></g>
<g><path style="opacity:0.925" fill="#a5cbfc" d="M 105.5,75.5 C 108.335,78.3197 108.001,80.653 104.5,82.5C 105.369,80.283 105.702,77.9496 105.5,75.5 Z"/></g>
<g><path style="opacity:0.25" fill="#c7e3fe" d="M 180.5,77.5 C 182.042,78.3007 183.708,78.634 185.5,78.5C 184.833,79.1667 184.167,79.8333 183.5,80.5C 181.958,79.6993 180.292,79.366 178.5,79.5C 179.167,78.8333 179.833,78.1667 180.5,77.5 Z"/></g>
<g><path style="opacity:0.853" fill="#a3cafc" d="M 198.5,76.5 C 201.734,78.5717 202.067,80.905 199.5,83.5C 199.552,81.0971 199.219,78.7638 198.5,76.5 Z"/></g>
<g><path style="opacity:0.999" fill="#58a2f9" d="M 153.5,79.5 C 154.219,81.7638 154.552,84.0971 154.5,86.5C 153.866,87.9468 152.699,88.6134 151,88.5C 149.301,88.6134 148.134,87.9468 147.5,86.5C 147.166,83.812 147.832,81.4786 149.5,79.5C 150.705,78.3143 152.039,78.3143 153.5,79.5 Z"/></g>
<g><path style="opacity:0.992" fill="#5ca3f9" d="M 178.5,79.5 C 180.292,79.366 181.958,79.6993 183.5,80.5C 184.88,80.9623 185.547,81.9623 185.5,83.5C 184.908,85.4225 183.908,87.0892 182.5,88.5C 180.901,88.7678 179.568,88.4345 178.5,87.5C 178.167,86.5 177.5,85.8333 176.5,85.5C 176.253,83.1417 176.919,81.1417 178.5,79.5 Z"/></g>
<g><path style="opacity:0.651" fill="#b6d8fc" d="M 192.5,77.5 C 191.677,82.3394 193.677,84.6728 198.5,84.5C 192.325,85.9853 190.325,83.652 192.5,77.5 Z"/></g>
<g><path style="opacity:0.89" fill="#a5cbfc" d="M 221.5,73.5 C 219.079,79.4189 221.079,81.7522 227.5,80.5C 222.917,83.3843 219.917,82.051 218.5,76.5C 218.879,74.7869 219.879,73.7869 221.5,73.5 Z"/></g>
<g><path style="opacity:0.5" fill="#b6dafd" d="M 129.5,82.5 C 126.812,82.1658 124.479,82.8325 122.5,84.5C 122.414,83.5041 122.748,82.6708 123.5,82C 125.712,81.2109 127.712,81.3775 129.5,82.5 Z"/></g>
<g><path style="opacity:0.169" fill="#cfe5fe" d="M 178.5,79.5 C 176.919,81.1417 176.253,83.1417 176.5,85.5C 175.387,84.0536 175.22,82.3869 176,80.5C 176.671,79.7476 177.504,79.4142 178.5,79.5 Z"/></g>
<g><path style="opacity:0.267" fill="#bddefe" d="M 98.5,81.5 C 100.435,82.1495 102.435,82.4828 104.5,82.5C 103.903,83.1386 103.07,83.472 102,83.5C 100.301,83.6134 99.1342,82.9468 98.5,81.5 Z"/></g>
<g><path style="opacity:0.999" fill="#6caaf9" d="M 129.5,82.5 C 132.276,85.5102 131.942,88.3435 128.5,91C 123.402,91.4098 121.402,89.2432 122.5,84.5C 124.479,82.8325 126.812,82.1658 129.5,82.5 Z"/></g>
<g><path style="opacity:0.941" fill="#a7cdfc" d="M 161.5,79.5 C 161.834,82.491 160.834,84.8243 158.5,86.5C 158.935,83.8427 159.935,81.5093 161.5,79.5 Z"/></g>
<g><path style="opacity:0.792" fill="#acd1fd" d="M 149.5,79.5 C 147.832,81.4786 147.166,83.812 147.5,86.5C 144.879,83.3766 145.546,81.0433 149.5,79.5 Z"/></g>
<g><path style="opacity:0.765" fill="#92c5fb" d="M 153.5,79.5 C 154.993,80.3121 155.66,81.6455 155.5,83.5C 155.48,84.7261 155.147,85.7261 154.5,86.5C 154.552,84.0971 154.219,81.7638 153.5,79.5 Z"/></g>
<g><path style="opacity:0.999" fill="#509ef8" d="M 101.5,86.5 C 102.167,86.5 102.5,86.8333 102.5,87.5C 102.675,89.6208 102.341,91.6208 101.5,93.5C 99.0971,93.552 96.7638,93.2186 94.5,92.5C 93.3143,91.0387 93.3143,89.7054 94.5,88.5C 96.4786,86.8325 98.812,86.1658 101.5,86.5 Z"/></g>
<g><path style="opacity:0.055" fill="#c7e1fd" d="M 176.5,85.5 C 177.5,85.8333 178.167,86.5 178.5,87.5C 177.167,87.5 176.5,86.8333 176.5,85.5 Z"/></g>
<g><path style="opacity:0.906" fill="#a2ccfc" d="M 62.5,87.5 C 59.8333,87.8333 57.1667,88.1667 54.5,88.5C 56.396,87.5195 58.396,86.5195 60.5,85.5C 61.5223,85.8555 62.189,86.5222 62.5,87.5 Z"/></g>
<g><path style="opacity:1" fill="#59a1f9" d="M 62.5,87.5 C 65.128,88.6248 65.9613,90.6248 65,93.5C 61.5598,96.7976 57.7265,98.131 53.5,97.5C 51.8325,95.5214 51.1658,93.188 51.5,90.5C 53.0269,90.573 54.0269,89.9063 54.5,88.5C 57.1667,88.1667 59.8333,87.8333 62.5,87.5 Z"/></g>
<g><path style="opacity:1" fill="#479bf8" d="M 81.5,87.5 C 82.3686,89.717 82.702,92.0504 82.5,94.5C 80.1667,94.5 77.8333,94.5 75.5,94.5C 74.5489,93.0813 74.2155,91.4147 74.5,89.5C 76.4786,87.8325 78.812,87.1658 81.5,87.5 Z"/></g>
<g><path style="opacity:0.42" fill="#b5d8fd" d="M 101.5,86.5 C 98.812,86.1658 96.4786,86.8325 94.5,88.5C 94.4142,87.5041 94.7476,86.6708 95.5,86C 97.8552,84.0234 99.8552,84.19 101.5,86.5 Z"/></g>
<g><path style="opacity:0.282" fill="#c4e0fd" d="M 81.5,87.5 C 78.812,87.1658 76.4786,87.8325 74.5,89.5C 74.4142,88.5041 74.7476,87.6708 75.5,87C 76.8721,86.5983 78.2054,86.0983 79.5,85.5C 80.5223,85.8555 81.189,86.5222 81.5,87.5 Z"/></g>
<g><path style="opacity:0.71" fill="#acd3fd" d="M 54.5,88.5 C 54.0269,89.9063 53.0269,90.573 51.5,90.5C 51.9731,89.0937 52.9731,88.427 54.5,88.5 Z"/></g>
<g><path style="opacity:0.999" fill="#67a7f9" d="M 182.5,88.5 C 187.083,87.343 189.75,89.0096 190.5,93.5C 190.471,95.0293 189.804,96.196 188.5,97C 186.065,97.853 183.731,98.853 181.5,100C 177.269,101.267 174.602,99.7673 173.5,95.5C 173.453,93.9623 174.12,92.9623 175.5,92.5C 178.272,92.2413 180.605,91.2413 182.5,89.5C 182.5,89.1667 182.5,88.8333 182.5,88.5 Z"/></g>
<g><path style="opacity:0.192" fill="#bddcfd" d="M 220.5,92.5 C 216.236,91.5118 211.903,90.8451 207.5,90.5C 204.837,90.3187 202.503,90.9854 200.5,92.5C 200.414,91.5041 200.748,90.6708 201.5,90C 206.167,89.3333 210.833,89.3333 215.5,90C 217.653,90.0995 219.319,90.9328 220.5,92.5 Z"/></g>
<g><path style="opacity:0.745" fill="#acd2fc" d="M 81.5,87.5 C 82.7251,88.1522 83.3917,89.3189 83.5,91C 83.4857,92.3847 83.1524,93.5514 82.5,94.5C 82.702,92.0504 82.3686,89.717 81.5,87.5 Z"/></g>
<g><path style="opacity:0.478" fill="#b2d8fc" d="M 102.5,87.5 C 103.147,88.2739 103.48,89.2739 103.5,90.5C 103.36,92.0296 102.693,93.0296 101.5,93.5C 102.341,91.6208 102.675,89.6208 102.5,87.5 Z"/></g>
<g><path style="opacity:0.999" fill="#5ea4f9" d="M 141.5,90.5 C 143.958,92.4929 144.125,94.8262 142,97.5C 139.99,99.5678 137.823,100.234 135.5,99.5C 131.747,92.8992 133.747,89.8992 141.5,90.5 Z"/></g>
<g><path style="opacity:0.294" fill="#c2dffd" d="M 182.5,89.5 C 180.605,91.2413 178.272,92.2413 175.5,92.5C 177.395,90.7587 179.728,89.7587 182.5,89.5 Z"/></g>
<g><path style="opacity:1" fill="#4199f8" d="M 220.5,92.5 C 220.702,94.9496 220.369,97.283 219.5,99.5C 216.167,99.5 212.833,99.5 209.5,99.5C 209.5,101.167 209.5,102.833 209.5,104.5C 209.5,105.167 209.167,105.5 208.5,105.5C 206.219,105.077 204.552,105.744 203.5,107.5C 202.058,108.82 201.392,110.486 201.5,112.5C 201.427,114.027 202.094,115.027 203.5,115.5C 203.427,117.027 204.094,118.027 205.5,118.5C 205.427,120.027 206.094,121.027 207.5,121.5C 209.008,123.181 210.008,125.181 210.5,127.5C 210.427,129.027 211.094,130.027 212.5,130.5C 213.183,132.176 214.517,132.843 216.5,132.5C 217.492,132.328 218.158,132.662 218.5,133.5C 219.219,135.764 219.552,138.097 219.5,140.5C 219.389,141.117 219.056,141.617 218.5,142C 220.579,145.324 222.246,148.824 223.5,152.5C 223.12,154.698 223.787,156.365 225.5,157.5C 228.266,162.117 230.266,167.117 231.5,172.5C 231.12,174.698 231.787,176.365 233.5,177.5C 233.861,181.915 235.194,185.915 237.5,189.5C 237.5,189.833 237.5,190.167 237.5,190.5C 237.259,192.898 237.926,194.898 239.5,196.5C 243.227,206.943 244.394,217.61 243,228.5C 239.066,236.396 233.232,238.396 225.5,234.5C 224.5,232.833 223.167,231.5 221.5,230.5C 218.849,222.594 216.183,214.594 213.5,206.5C 213.715,204.821 213.048,203.821 211.5,203.5C 210.512,202.205 209.512,200.872 208.5,199.5C 206.833,195.833 204.167,193.167 200.5,191.5C 200.027,190.094 199.027,189.427 197.5,189.5C 194.515,188.674 191.849,187.341 189.5,185.5C 188.365,183.787 186.698,183.12 184.5,183.5C 183.01,181.72 181.01,181.054 178.5,181.5C 174.327,181.309 170.16,180.976 166,180.5C 164.167,180.833 162.333,181.167 160.5,181.5C 159.873,182.417 159.539,183.417 159.5,184.5C 160.11,186.434 161.11,188.101 162.5,189.5C 163.205,194.48 160.872,197.147 155.5,197.5C 155.768,199.099 155.434,200.432 154.5,201.5C 152.065,210.207 150.732,219.207 150.5,228.5C 150.672,229.492 150.338,230.158 149.5,230.5C 148.094,230.973 147.427,231.973 147.5,233.5C 145.191,235.727 142.358,236.727 139,236.5C 136.456,236.664 134.29,235.997 132.5,234.5C 132.027,233.094 131.027,232.427 129.5,232.5C 128.207,231.158 127.374,229.491 127,227.5C 126.132,219.721 126.632,212.054 128.5,204.5C 130.04,202.162 130.706,199.495 130.5,196.5C 130.232,194.901 130.566,193.568 131.5,192.5C 133.163,190.562 133.829,188.228 133.5,185.5C 133.232,183.901 133.566,182.568 134.5,181.5C 136.074,179.898 136.741,177.898 136.5,175.5C 138.074,173.898 138.741,171.898 138.5,169.5C 140.834,167.824 141.834,165.491 141.5,162.5C 141.263,161.209 141.596,160.209 142.5,159.5C 144.597,158.121 144.93,156.455 143.5,154.5C 142.508,154.672 141.842,154.338 141.5,153.5C 141.5,151.5 141.5,149.5 141.5,147.5C 141.5,146.833 141.833,146.5 142.5,146.5C 144.591,146.318 146.591,146.652 148.5,147.5C 149.429,146.311 149.762,144.978 149.5,143.5C 150.659,139.849 152.326,136.515 154.5,133.5C 155.906,133.027 156.573,132.027 156.5,130.5C 156.66,128.847 157.326,127.514 158.5,126.5C 159.906,126.027 160.573,125.027 160.5,123.5C 160.66,121.847 161.326,120.514 162.5,119.5C 163.906,119.027 164.573,118.027 164.5,116.5C 166.262,115.738 167.262,114.404 167.5,112.5C 168.468,110.393 168.802,108.059 168.5,105.5C 171.385,105.806 174.052,105.473 176.5,104.5C 181.13,103.771 185.797,103.437 190.5,103.5C 191.583,103.539 192.583,103.873 193.5,104.5C 194.622,103.37 195.956,102.703 197.5,102.5C 199.483,102.843 200.817,102.176 201.5,100.5C 201.276,98.2133 200.609,96.0466 199.5,94C 199.57,93.2352 199.903,92.7352 200.5,92.5C 202.503,90.9854 204.837,90.3187 207.5,90.5C 211.903,90.8451 216.236,91.5118 220.5,92.5 Z M 185.5,127.5 C 191.893,138.289 197.227,149.622 201.5,161.5C 200.609,160.89 199.609,160.557 198.5,160.5C 196.833,157.833 195.167,157.833 193.5,160.5C 192.167,160.5 191.5,161.167 191.5,162.5C 190.609,163.11 189.609,163.443 188.5,163.5C 183.831,161.421 178.831,160.421 173.5,160.5C 171.156,160.06 169.156,159.06 167.5,157.5C 170.35,152.298 173.017,146.965 175.5,141.5C 176.167,142.167 176.833,142.833 177.5,143.5C 177.833,144.167 178.167,144.833 178.5,145.5C 179.925,146.922 180.925,148.589 181.5,150.5C 180.031,153.102 180.698,155.269 183.5,157C 186.375,157.961 188.375,157.128 189.5,154.5C 190.89,153.101 191.89,151.434 192.5,149.5C 193.613,148.054 193.78,146.387 193,144.5C 189.605,141.593 186.105,138.927 182.5,136.5C 181.5,135.833 180.5,135.167 179.5,134.5C 181.316,132.882 182.649,130.882 183.5,128.5C 184.167,128.167 184.833,127.833 185.5,127.5 Z M 203.5,169.5 C 204.167,169.5 204.833,169.5 205.5,169.5C 205.672,170.492 205.338,171.158 204.5,171.5C 204.167,170.833 203.833,170.167 203.5,169.5 Z"/></g>
<g><path style="opacity:0.78" fill="#afd4fc" d="M 116.5,92.5 C 114.5,92.5 112.5,92.5 110.5,92.5C 112.594,90.0062 114.594,90.0062 116.5,92.5 Z"/></g>
<g><path style="opacity:0.004" fill="#d4e8fd" d="M 166.5,90.5 C 166.5,91.8333 165.833,92.5 164.5,92.5C 164.833,91.5 165.5,90.8333 166.5,90.5 Z"/></g>
<g><path style="opacity:0.999" fill="#509ff8" d="M 110.5,92.5 C 112.5,92.5 114.5,92.5 116.5,92.5C 117.167,92.5 117.5,92.8333 117.5,93.5C 117.427,95.0269 118.094,96.0269 119.5,96.5C 119.833,97.8333 120.167,99.1667 120.5,100.5C 120.5,101.167 120.167,101.5 119.5,101.5C 117.621,102.341 115.621,102.675 113.5,102.5C 109.741,99.8971 108.741,96.5638 110.5,92.5 Z"/></g>
<g><path style="opacity:0.286" fill="#b4d7fd" d="M 158.5,91.5 C 160.435,92.1495 162.435,92.4828 164.5,92.5C 163.903,93.1386 163.07,93.472 162,93.5C 160.301,93.6134 159.134,92.9468 158.5,91.5 Z"/></g>
<g><path style="opacity:0.776" fill="#a2cbfb" d="M 51.5,90.5 C 51.1658,93.188 51.8325,95.5214 53.5,97.5C 49.5458,95.9567 48.8792,93.6234 51.5,90.5 Z"/></g>
<g><path style="opacity:0.827" fill="#a8cffc" d="M 94.5,92.5 C 96.7638,93.2186 99.0971,93.552 101.5,93.5C 98.9679,96.0136 96.6346,95.6803 94.5,92.5 Z"/></g>
<g><path style="opacity:0.89" fill="#a7cdfc" d="M 75.5,94.5 C 77.8333,94.5 80.1667,94.5 82.5,94.5C 80.1667,97.1667 77.8333,97.1667 75.5,94.5 Z"/></g>
<g><path style="opacity:0.835" fill="#9ecbfc" d="M 141.5,90.5 C 133.747,89.8992 131.747,92.8992 135.5,99.5C 134.504,99.5858 133.671,99.2524 133,98.5C 131.076,92.9919 132.909,89.6586 138.5,88.5C 139.739,88.9424 140.739,89.6091 141.5,90.5 Z"/></g>
<g><path style="opacity:0.357" fill="#bcdcfc" d="M 117.5,93.5 C 118.906,93.9731 119.573,94.9731 119.5,96.5C 118.094,96.0269 117.427,95.0269 117.5,93.5 Z"/></g>
<g><path style="opacity:0.898" fill="#a9cdfc" d="M 220.5,92.5 C 221.88,92.9623 222.547,93.9623 222.5,95.5C 222.439,97.6528 221.439,98.9862 219.5,99.5C 220.369,97.283 220.702,94.9496 220.5,92.5 Z"/></g>
<g><path style="opacity:0.098" fill="#dfeefe" d="M 119.5,96.5 C 121.519,97.5383 121.853,98.8716 120.5,100.5C 120.167,99.1667 119.833,97.8333 119.5,96.5 Z"/></g>
<g><path style="opacity:0.999" fill="#62a6f9" d="M 145.5,108.5 C 143.435,108.483 141.435,108.15 139.5,107.5C 138.314,106.039 138.314,104.705 139.5,103.5C 140.833,102.833 141.833,101.833 142.5,100.5C 144.832,98.6675 147.498,97.3341 150.5,96.5C 154.147,97.4861 155.314,99.8194 154,103.5C 151.643,106.091 148.809,107.758 145.5,108.5 Z"/></g>
<g><path style="opacity:0.408" fill="#bfdefd" d="M 219.5,99.5 C 216.713,100.477 213.713,100.81 210.5,100.5C 210.768,102.099 210.434,103.432 209.5,104.5C 209.5,102.833 209.5,101.167 209.5,99.5C 212.833,99.5 216.167,99.5 219.5,99.5 Z"/></g>
<g><path style="opacity:0.216" fill="#e8f4fe" d="M 201.5,100.5 C 200.817,102.176 199.483,102.843 197.5,102.5C 198.671,101.655 200.005,100.989 201.5,100.5 Z"/></g>
<g><path style="opacity:0.039" fill="#e1f0fe" d="M 119.5,101.5 C 120.167,102.167 120.833,102.833 121.5,103.5C 119.784,103.629 118.117,103.962 116.5,104.5C 115.5,103.833 114.5,103.167 113.5,102.5C 115.621,102.675 117.621,102.341 119.5,101.5 Z"/></g>
<g><path style="opacity:0.604" fill="#abd3fc" d="M 142.5,100.5 C 141.833,101.833 140.833,102.833 139.5,103.5C 139.5,101.5 140.5,100.5 142.5,100.5 Z"/></g>
<g><path style="opacity:0.192" fill="#cee4fd" d="M 190.5,103.5 C 185.797,103.437 181.13,103.771 176.5,104.5C 179.017,103.027 181.85,102.36 185,102.5C 187.033,102.506 188.866,102.839 190.5,103.5 Z"/></g>
<g><path style="opacity:0.216" fill="#cbe5fd" d="M 111.5,105.5 C 84.5,104.167 57.5,104.167 30.5,105.5C 31.2625,104.732 32.2625,104.232 33.5,104C 58.5,103.333 83.5,103.333 108.5,104C 109.737,104.232 110.737,104.732 111.5,105.5 Z"/></g>
<g><path style="opacity:0.725" fill="#b5d7fd" d="M 350.5,104.5 C 346.434,104.307 342.434,104.64 338.5,105.5C 342.278,102.219 346.278,101.886 350.5,104.5 Z"/></g>
<g><path style="opacity:1" fill="#459bf8" d="M 439.5,103.5 C 441.181,105.008 443.181,106.008 445.5,106.5C 447.167,107.5 448.5,108.833 449.5,110.5C 449.738,112.404 450.738,113.738 452.5,114.5C 452.427,116.027 453.094,117.027 454.5,117.5C 454.427,119.027 455.094,120.027 456.5,120.5C 457.674,121.514 458.34,122.847 458.5,124.5C 458.427,126.027 459.094,127.027 460.5,127.5C 462.674,130.515 464.341,133.849 465.5,137.5C 465.427,139.027 466.094,140.027 467.5,140.5C 467.5,140.833 467.5,141.167 467.5,141.5C 467.427,143.027 468.094,144.027 469.5,144.5C 471.105,147.378 472.439,150.378 473.5,153.5C 473.166,156.491 474.166,158.824 476.5,160.5C 476.166,163.491 477.166,165.824 479.5,167.5C 479.12,169.698 479.787,171.365 481.5,172.5C 482.363,174.421 483.029,176.421 483.5,178.5C 483.861,182.915 485.194,186.915 487.5,190.5C 487.5,190.833 487.5,191.167 487.5,191.5C 487.41,194.152 488.076,196.485 489.5,198.5C 489.294,201.495 489.96,204.162 491.5,206.5C 493.861,214.431 494.028,222.431 492,230.5C 488.09,236.211 482.924,237.878 476.5,235.5C 476.027,234.094 475.027,233.427 473.5,233.5C 471.827,232.657 470.66,231.324 470,229.5C 468.846,225.896 468.013,222.229 467.5,218.5C 467.829,215.772 467.163,213.438 465.5,211.5C 463.111,207.068 460.445,202.735 457.5,198.5C 456.5,195.5 454.5,193.5 451.5,192.5C 451.027,191.094 450.027,190.427 448.5,190.5C 448.027,189.094 447.027,188.427 445.5,188.5C 443.181,188.008 441.181,187.008 439.5,185.5C 438.365,183.787 436.698,183.12 434.5,183.5C 432.562,181.837 430.228,181.171 427.5,181.5C 425.265,181.795 423.265,181.461 421.5,180.5C 419.696,179.838 417.696,179.505 415.5,179.5C 413.048,179.539 411.048,180.206 409.5,181.5C 405.195,197.272 402.028,213.272 400,229.5C 396.156,235.949 390.656,237.949 383.5,235.5C 383.027,234.094 382.027,233.427 380.5,233.5C 378.39,232.547 377.223,230.881 377,228.5C 376.105,219.937 376.605,211.604 378.5,203.5C 380.04,201.162 380.706,198.495 380.5,195.5C 380.7,192.37 381.366,189.37 382.5,186.5C 384.074,184.898 384.741,182.898 384.5,180.5C 386.642,177.2 387.975,173.533 388.5,169.5C 388.5,169.167 388.5,168.833 388.5,168.5C 390.213,167.365 390.88,165.698 390.5,163.5C 392.834,161.824 393.834,159.491 393.5,156.5C 395.213,155.365 395.88,153.698 395.5,151.5C 398.992,143.182 402.992,135.182 407.5,127.5C 408.906,127.027 409.573,126.027 409.5,124.5C 409.66,122.847 410.326,121.514 411.5,120.5C 412.906,120.027 413.573,119.027 413.5,117.5C 415.262,116.738 416.262,115.404 416.5,113.5C 419.5,111.167 422.167,108.5 424.5,105.5C 429.346,103.961 434.346,103.294 439.5,103.5 Z M 454.5,170.5 C 451.5,169.167 448.5,167.833 445.5,166.5C 444.22,165.069 442.553,164.402 440.5,164.5C 438.786,163.262 436.786,162.595 434.5,162.5C 430.79,160.864 426.79,160.198 422.5,160.5C 420.586,159.815 418.586,159.315 416.5,159C 421.615,147.93 427.615,137.43 434.5,127.5C 443.06,140.953 449.726,155.286 454.5,170.5 Z"/></g>
<g><path style="opacity:1" fill="#3b97f8" d="M 121.5,103.5 C 121.833,103.5 122.167,103.5 122.5,103.5C 123.219,105.764 123.552,108.097 123.5,110.5C 123.5,111.167 123.167,111.5 122.5,111.5C 120.5,111.5 118.5,111.5 116.5,111.5C 116.5,114.833 116.5,118.167 116.5,121.5C 114.248,125.798 110.581,127.798 105.5,127.5C 103.5,127.5 101.5,127.5 99.5,127.5C 94.3497,126.349 89.0164,126.183 83.5,127C 82.179,130.934 82.179,134.767 83.5,138.5C 82.5313,168.475 82.198,198.475 82.5,228.5C 81.8333,232.5 79.5,234.833 75.5,235.5C 70.7836,235.879 66.4502,234.879 62.5,232.5C 60.5905,231.025 59.4238,229.025 59,226.5C 58.8332,200.827 58.3332,175.16 57.5,149.5C 55.8888,148.68 55.2222,147.346 55.5,145.5C 56.4918,143.544 57.4918,141.544 58.5,139.5C 59.4849,135.366 59.8182,131.032 59.5,126.5C 50.1667,126.5 40.8333,126.5 31.5,126.5C 30.5084,126.672 29.8417,126.338 29.5,125.5C 28.5977,123.659 27.2644,122.326 25.5,121.5C 24.2134,117.732 24.2134,114.065 25.5,110.5C 26.9063,110.027 27.573,109.027 27.5,107.5C 29.0269,107.573 30.0269,106.906 30.5,105.5C 57.5,104.167 84.5,104.167 111.5,105.5C 112.583,105.539 113.583,105.873 114.5,106.5C 115.182,105.757 115.849,105.091 116.5,104.5C 118.117,103.962 119.784,103.629 121.5,103.5 Z"/></g>
<g><path style="opacity:0.824" fill="#add1fd" d="M 176.5,104.5 C 174.052,105.473 171.385,105.806 168.5,105.5C 169.261,104.609 170.261,103.942 171.5,103.5C 173.071,104.309 174.738,104.643 176.5,104.5 Z"/></g>
<g><path style="opacity:0.647" fill="#b9d9fc" d="M 282.5,104.5 C 278.434,104.307 274.434,104.64 270.5,105.5C 274.278,102.219 278.278,101.886 282.5,104.5 Z"/></g>
<g><path style="opacity:1" fill="#439af8" d="M 282.5,104.5 C 285.428,105.591 287.594,107.591 289,110.5C 289.5,121.161 289.667,131.828 289.5,142.5C 293.889,144.144 298.555,145.144 303.5,145.5C 304.726,145.48 305.726,145.147 306.5,144.5C 309.393,144.969 311.393,143.969 312.5,141.5C 312.842,140.662 313.508,140.328 314.5,140.5C 316.404,140.262 317.738,139.262 318.5,137.5C 321.167,136.833 322.833,135.167 323.5,132.5C 323.833,131.5 324.5,130.833 325.5,130.5C 326.906,130.027 327.573,129.027 327.5,127.5C 328.906,127.027 329.573,126.027 329.5,124.5C 329.557,123.391 329.89,122.391 330.5,121.5C 332.99,118.374 334.323,114.708 334.5,110.5C 334.328,109.508 334.662,108.842 335.5,108.5C 336.833,107.833 337.833,106.833 338.5,105.5C 342.434,104.64 346.434,104.307 350.5,104.5C 351.492,104.328 352.158,104.662 352.5,105.5C 352.738,107.404 353.738,108.738 355.5,109.5C 358.234,115.312 357.901,120.979 354.5,126.5C 353.069,127.78 352.402,129.447 352.5,131.5C 347.478,141.188 340.145,148.522 330.5,153.5C 328.576,153.711 328.243,154.377 329.5,155.5C 330.492,155.328 331.158,155.662 331.5,156.5C 331.973,157.906 332.973,158.573 334.5,158.5C 335.035,160.446 336.368,161.446 338.5,161.5C 340.167,162.5 341.5,163.833 342.5,165.5C 342.5,167.5 343.5,168.5 345.5,168.5C 345.738,170.404 346.738,171.738 348.5,172.5C 348.427,174.027 349.094,175.027 350.5,175.5C 350.427,177.027 351.094,178.027 352.5,178.5C 352.427,180.027 353.094,181.027 354.5,181.5C 356.341,183.849 357.674,186.515 358.5,189.5C 358.12,191.698 358.787,193.365 360.5,194.5C 361.434,195.568 361.768,196.901 361.5,198.5C 361.898,202.761 362.898,206.761 364.5,210.5C 366.178,217.669 365.678,224.669 363,231.5C 361.961,232.71 360.794,233.71 359.5,234.5C 354.77,234.717 350.103,234.383 345.5,233.5C 342.888,231.948 341.555,229.614 341.5,226.5C 341.745,220.916 341.078,215.583 339.5,210.5C 338.232,208.095 337.565,205.428 337.5,202.5C 337.741,200.102 337.074,198.102 335.5,196.5C 333.326,193.485 331.659,190.151 330.5,186.5C 330.446,184.368 329.446,183.035 327.5,182.5C 326.167,179.167 323.833,176.833 320.5,175.5C 319.5,175.167 318.833,174.5 318.5,173.5C 318.027,172.094 317.027,171.427 315.5,171.5C 313.847,171.34 312.514,170.674 311.5,169.5C 310.365,167.787 308.698,167.12 306.5,167.5C 304.562,165.837 302.228,165.171 299.5,165.5C 297.585,165.784 295.919,165.451 294.5,164.5C 292.735,163.539 290.735,163.205 288.5,163.5C 288.5,185.167 288.5,206.833 288.5,228.5C 287.752,232.417 285.418,234.917 281.5,236C 278.408,236.736 275.408,236.569 272.5,235.5C 272.027,234.094 271.027,233.427 269.5,233.5C 267.016,231.88 265.516,229.547 265,226.5C 264.173,188.095 264.34,149.762 265.5,111.5C 266.906,111.027 267.573,110.027 267.5,108.5C 268.833,107.833 269.833,106.833 270.5,105.5C 274.434,104.64 278.434,104.307 282.5,104.5 Z"/></g>
<g><path style="opacity:0.949" fill="#add1fc" d="M 439.5,103.5 C 434.346,103.294 429.346,103.961 424.5,105.5C 425.842,104.207 427.509,103.374 429.5,103C 433.027,102.192 436.36,102.359 439.5,103.5 Z"/></g>
<g><path style="opacity:0.227" fill="#cbe4fe" d="M 439.5,103.5 C 442.089,103.461 444.089,104.461 445.5,106.5C 443.181,106.008 441.181,105.008 439.5,103.5 Z"/></g>
<g><path style="opacity:0.545" fill="#a7d0fd" d="M 208.5,105.5 C 206.972,106.309 205.306,106.976 203.5,107.5C 204.552,105.744 206.219,105.077 208.5,105.5 Z"/></g>
<g><path style="opacity:0.757" fill="#a3cdfc" d="M 30.5,105.5 C 30.0269,106.906 29.0269,107.573 27.5,107.5C 27.9731,106.094 28.9731,105.427 30.5,105.5 Z"/></g>
<g><path style="opacity:0.796" fill="#acd2fd" d="M 352.5,105.5 C 354.262,106.262 355.262,107.596 355.5,109.5C 353.738,108.738 352.738,107.404 352.5,105.5 Z"/></g>
<g><path style="opacity:0.71" fill="#b3d6fd" d="M 122.5,103.5 C 125.734,105.572 126.067,107.905 123.5,110.5C 123.552,108.097 123.219,105.764 122.5,103.5 Z"/></g>
<g><path style="opacity:0.58" fill="#afd4fb" d="M 270.5,105.5 C 269.833,106.833 268.833,107.833 267.5,108.5C 267.5,106.5 268.5,105.5 270.5,105.5 Z"/></g>
<g><path style="opacity:0.451" fill="#bedefd" d="M 338.5,105.5 C 337.833,106.833 336.833,107.833 335.5,108.5C 335.5,106.5 336.5,105.5 338.5,105.5 Z"/></g>
<g><path style="opacity:0.263" fill="#c2dffd" d="M 139.5,107.5 C 141.435,108.15 143.435,108.483 145.5,108.5C 144.903,109.139 144.07,109.472 143,109.5C 141.301,109.613 140.134,108.947 139.5,107.5 Z"/></g>
<g><path style="opacity:0.898" fill="#9cc7fc" d="M 168.5,105.5 C 168.802,108.059 168.468,110.393 167.5,112.5C 165.956,109.828 166.289,107.495 168.5,105.5 Z"/></g>
<g><path style="opacity:0.353" fill="#bddbfd" d="M 27.5,107.5 C 27.573,109.027 26.9063,110.027 25.5,110.5C 25.427,108.973 26.0937,107.973 27.5,107.5 Z"/></g>
<g><path style="opacity:0.761" fill="#abd2fc" d="M 424.5,105.5 C 422.167,108.5 419.5,111.167 416.5,113.5C 418.167,109.833 420.833,107.167 424.5,105.5 Z"/></g>
<g><path style="opacity:1" fill="#539ff8" d="M 227.5,110.5 C 228.038,112.117 228.371,113.784 228.5,115.5C 226.122,117.757 223.455,118.09 220.5,116.5C 220.166,113.812 220.832,111.479 222.5,109.5C 224.455,108.07 226.121,108.403 227.5,110.5 Z"/></g>
<g><path style="opacity:0.196" fill="#cce3fc" d="M 267.5,108.5 C 267.573,110.027 266.906,111.027 265.5,111.5C 265.427,109.973 266.094,108.973 267.5,108.5 Z"/></g>
<g><path style="opacity:0.667" fill="#b9dafd" d="M 449.5,110.5 C 451.262,111.262 452.262,112.596 452.5,114.5C 450.738,113.738 449.738,112.404 449.5,110.5 Z"/></g>
<g><path style="opacity:0.998" fill="#499df8" d="M 158.5,112.5 C 159.15,114.435 159.483,116.435 159.5,118.5C 158.5,118.833 157.833,119.5 157.5,120.5C 152.66,119.722 151.327,117.055 153.5,112.5C 155.167,111.167 156.833,111.167 158.5,112.5 Z"/></g>
<g><path style="opacity:0.082" fill="#dfedfe" d="M 227.5,110.5 C 229.597,111.879 229.93,113.545 228.5,115.5C 228.371,113.784 228.038,112.117 227.5,110.5 Z"/></g>
<g><path style="opacity:0.537" fill="#bbdbfd" d="M 222.5,109.5 C 220.832,111.479 220.166,113.812 220.5,116.5C 219.378,114.712 219.211,112.712 220,110.5C 220.671,109.748 221.504,109.414 222.5,109.5 Z"/></g>
<g><path style="opacity:0.973" fill="#9fc8fb" d="M 334.5,110.5 C 334.323,114.708 332.99,118.374 330.5,121.5C 331.389,117.569 332.722,113.902 334.5,110.5 Z"/></g>
<g><path style="opacity:0.396" fill="#a9d0fc" d="M 158.5,112.5 C 159.947,113.134 160.613,114.301 160.5,116C 160.472,117.07 160.139,117.903 159.5,118.5C 159.483,116.435 159.15,114.435 158.5,112.5 Z"/></g>
<g><path style="opacity:0.596" fill="#aad0fd" d="M 167.5,112.5 C 167.262,114.404 166.262,115.738 164.5,116.5C 164.738,114.596 165.738,113.262 167.5,112.5 Z"/></g>
<g><path style="opacity:0.424" fill="#b9dafc" d="M 201.5,112.5 C 202.906,112.973 203.573,113.973 203.5,115.5C 202.094,115.027 201.427,114.027 201.5,112.5 Z"/></g>
<g><path style="opacity:0.949" fill="#9cc6fc" d="M 122.5,111.5 C 121.739,112.391 120.739,113.058 119.5,113.5C 118.485,116.276 117.485,118.943 116.5,121.5C 116.5,118.167 116.5,114.833 116.5,111.5C 118.5,111.5 120.5,111.5 122.5,111.5 Z"/></g>
<g><path style="opacity:0.016" fill="#c9e3fd" d="M 135.5,118.5 C 132.833,115.833 130.167,115.833 127.5,118.5C 127.685,116.11 129.018,115.11 131.5,115.5C 133.982,115.11 135.315,116.11 135.5,118.5 Z"/></g>
<g><path style="opacity:0.876" fill="#afd1fc" d="M 153.5,112.5 C 151.327,117.055 152.66,119.722 157.5,120.5C 156.432,121.434 155.099,121.768 153.5,121.5C 152.124,119.918 151.124,118.085 150.5,116C 150.707,114.05 151.707,112.884 153.5,112.5 Z"/></g>
<g><path style="opacity:0.655" fill="#aad2fc" d="M 416.5,113.5 C 416.262,115.404 415.262,116.738 413.5,117.5C 413.738,115.596 414.738,114.262 416.5,113.5 Z"/></g>
<g><path style="opacity:0.999" fill="#69a8f9" d="M 135.5,118.5 C 136.96,122.108 135.626,124.441 131.5,125.5C 127.374,124.441 126.04,122.108 127.5,118.5C 130.167,115.833 132.833,115.833 135.5,118.5 Z"/></g>
<g><path style="opacity:0.373" fill="#bbdbfd" d="M 452.5,114.5 C 453.906,114.973 454.573,115.973 454.5,117.5C 453.094,117.027 452.427,116.027 452.5,114.5 Z"/></g>
<g><path style="opacity:0.392" fill="#b8d9fd" d="M 203.5,115.5 C 204.906,115.973 205.573,116.973 205.5,118.5C 204.094,118.027 203.427,117.027 203.5,115.5 Z"/></g>
<g><path style="opacity:0.012" fill="#d0e5fd" d="M 228.5,115.5 C 228.315,117.89 226.982,118.89 224.5,118.5C 222.645,118.66 221.312,117.993 220.5,116.5C 223.455,118.09 226.122,117.757 228.5,115.5 Z"/></g>
<g><path style="opacity:0.329" fill="#c2defd" d="M 164.5,116.5 C 164.573,118.027 163.906,119.027 162.5,119.5C 162.427,117.973 163.094,116.973 164.5,116.5 Z"/></g>
<g><path style="opacity:0.004" fill="#cde4fe" d="M 159.5,118.5 C 159.5,119.833 158.833,120.5 157.5,120.5C 157.833,119.5 158.5,118.833 159.5,118.5 Z"/></g>
<g><path style="opacity:0.298" fill="#c9e3fe" d="M 413.5,117.5 C 413.573,119.027 412.906,120.027 411.5,120.5C 411.427,118.973 412.094,117.973 413.5,117.5 Z"/></g>
<g><path style="opacity:0.278" fill="#c9e3fe" d="M 454.5,117.5 C 455.906,117.973 456.573,118.973 456.5,120.5C 455.094,120.027 454.427,119.027 454.5,117.5 Z"/></g>
<g><path style="opacity:0.29" fill="#c6e0fd" d="M 205.5,118.5 C 206.906,118.973 207.573,119.973 207.5,121.5C 206.094,121.027 205.427,120.027 205.5,118.5 Z"/></g>
<g><path style="opacity:0.404" fill="#abd3fd" d="M 153.5,121.5 C 153.5,121.833 153.5,122.167 153.5,122.5C 151.435,122.517 149.435,122.85 147.5,123.5C 148.99,121.72 150.99,121.054 153.5,121.5 Z"/></g>
<g><path style="opacity:0.998" fill="#54a0f9" d="M 153.5,122.5 C 155.441,124.011 155.941,126.011 155,128.5C 153.669,130.996 151.836,132.996 149.5,134.5C 147.784,134.371 146.117,134.038 144.5,133.5C 144.401,130.763 144.735,128.096 145.5,125.5C 145.833,124.5 146.5,123.833 147.5,123.5C 149.435,122.85 151.435,122.517 153.5,122.5 Z"/></g>
<g><path style="opacity:0.486" fill="#b7d7fc" d="M 25.5,121.5 C 27.2644,122.326 28.5977,123.659 29.5,125.5C 27.2901,125.106 25.9568,123.773 25.5,121.5 Z"/></g>
<g><path style="opacity:0.388" fill="#b9d9fd" d="M 160.5,123.5 C 160.573,125.027 159.906,126.027 158.5,126.5C 158.427,124.973 159.094,123.973 160.5,123.5 Z"/></g>
<g><path style="opacity:0.165" fill="#cfe5fd" d="M 185.5,127.5 C 184.833,127.833 184.167,128.167 183.5,128.5C 183.711,126.576 184.377,126.243 185.5,127.5 Z"/></g>
<g><path style="opacity:0.361" fill="#bddcfd" d="M 329.5,124.5 C 329.573,126.027 328.906,127.027 327.5,127.5C 327.427,125.973 328.094,124.973 329.5,124.5 Z"/></g>
<g><path style="opacity:0.271" fill="#c6e1fd" d="M 409.5,124.5 C 409.573,126.027 408.906,127.027 407.5,127.5C 407.427,125.973 408.094,124.973 409.5,124.5 Z"/></g>
<g><path style="opacity:0.255" fill="#c8e1fc" d="M 458.5,124.5 C 459.906,124.973 460.573,125.973 460.5,127.5C 459.094,127.027 458.427,126.027 458.5,124.5 Z"/></g>
<g><path style="opacity:0.886" fill="#96c3fb" d="M 99.5,127.5 C 101.5,127.5 103.5,127.5 105.5,127.5C 103.5,130.167 101.5,130.167 99.5,127.5 Z"/></g>
<g><path style="opacity:0.6" fill="#8dc4fb" d="M 99.5,127.5 C 94.2882,128.137 89.4549,128.137 85,127.5C 83.5845,130.958 83.0845,134.625 83.5,138.5C 82.179,134.767 82.179,130.934 83.5,127C 89.0164,126.183 94.3497,126.349 99.5,127.5 Z"/></g>
<g><path style="opacity:0.999" fill="#61a5f9" d="M 124.5,128.5 C 125.117,128.611 125.617,128.944 126,129.5C 127.72,135.254 125.887,137.587 120.5,136.5C 116.882,131.171 118.216,128.504 124.5,128.5 Z"/></g>
<g><path style="opacity:0.922" fill="#a9cffd" d="M 145.5,125.5 C 144.735,128.096 144.401,130.763 144.5,133.5C 143.833,133.5 143.5,133.833 143.5,134.5C 142.5,134.167 141.833,133.5 141.5,132.5C 143.765,132.559 144.098,131.726 142.5,130C 142.899,128.019 143.899,126.519 145.5,125.5 Z"/></g>
<g><path style="opacity:0.282" fill="#bedbfe" d="M 210.5,127.5 C 211.906,127.973 212.573,128.973 212.5,130.5C 211.094,130.027 210.427,129.027 210.5,127.5 Z"/></g>
<g><path style="opacity:0.427" fill="#bcdcfd" d="M 327.5,127.5 C 327.573,129.027 326.906,130.027 325.5,130.5C 325.427,128.973 326.094,127.973 327.5,127.5 Z"/></g>
<g><path style="opacity:0.255" fill="#c9e3fd" d="M 354.5,126.5 C 354.598,128.553 353.931,130.22 352.5,131.5C 352.402,129.447 353.069,127.78 354.5,126.5 Z"/></g>
<g><path style="opacity:0.8" fill="#a5cefc" d="M 124.5,128.5 C 118.216,128.504 116.882,131.171 120.5,136.5C 119.504,136.586 118.671,136.252 118,135.5C 115.829,128.507 117.995,126.174 124.5,128.5 Z"/></g>
<g><path style="opacity:0.796" fill="#b1d5fd" d="M 141.5,132.5 C 139.379,132.325 137.379,132.659 135.5,133.5C 135.884,131.707 137.05,130.707 139,130.5C 140.301,130.639 141.134,131.305 141.5,132.5 Z"/></g>
<g><path style="opacity:0.102" fill="#daecfe" d="M 212.5,130.5 C 213.995,130.989 215.329,131.655 216.5,132.5C 214.517,132.843 213.183,132.176 212.5,130.5 Z"/></g>
<g><path style="opacity:0.998" fill="#54a1f9" d="M 141.5,132.5 C 141.833,133.5 142.5,134.167 143.5,134.5C 143.784,136.415 143.451,138.081 142.5,139.5C 140.5,139.5 138.5,139.5 136.5,139.5C 135.053,138.866 134.387,137.699 134.5,136C 134.528,134.93 134.861,134.097 135.5,133.5C 137.379,132.659 139.379,132.325 141.5,132.5 Z"/></g>
<g><path style="opacity:0.157" fill="#d7ebfe" d="M 156.5,130.5 C 156.573,132.027 155.906,133.027 154.5,133.5C 154.427,131.973 155.094,130.973 156.5,130.5 Z"/></g>
<g><path style="opacity:0.206" fill="#b4d8fd" d="M 31.5,126.5 C 40.8333,126.5 50.1667,126.5 59.5,126.5C 59.8182,131.032 59.4849,135.366 58.5,139.5C 58.5,135.5 58.5,131.5 58.5,127.5C 49.3178,127.827 40.3178,127.493 31.5,126.5 Z"/></g>
<g><path style="opacity:0.212" fill="#d3e8fe" d="M 144.5,133.5 C 146.117,134.038 147.784,134.371 149.5,134.5C 147.545,135.93 145.879,135.597 144.5,133.5 Z"/></g>
<g><path style="opacity:0.243" fill="#c8e0fd" d="M 218.5,133.5 C 219.993,134.312 220.66,135.645 220.5,137.5C 220.48,138.726 220.147,139.726 219.5,140.5C 219.552,138.097 219.219,135.764 218.5,133.5 Z"/></g>
<g><path style="opacity:0.835" fill="#99c7fc" d="M 323.5,132.5 C 322.833,135.167 321.167,136.833 318.5,137.5C 319.833,135.5 321.5,133.833 323.5,132.5 Z"/></g>
<g><path style="opacity:0.999" fill="#58a1f9" d="M 182.5,136.5 C 186.105,138.927 189.605,141.593 193,144.5C 193.78,146.387 193.613,148.054 192.5,149.5C 190.273,150.401 189.273,152.067 189.5,154.5C 188.375,157.128 186.375,157.961 183.5,157C 180.698,155.269 180.031,153.102 181.5,150.5C 182.821,147.765 181.821,146.098 178.5,145.5C 178.167,144.833 177.833,144.167 177.5,143.5C 176.533,139.149 178.2,136.815 182.5,136.5 Z"/></g>
<g><path style="opacity:0.518" fill="#b5d8fd" d="M 318.5,137.5 C 317.738,139.262 316.404,140.262 314.5,140.5C 315.262,138.738 316.596,137.738 318.5,137.5 Z"/></g>
<g><path style="opacity:0.718" fill="#b1d3fd" d="M 136.5,139.5 C 138.5,139.5 140.5,139.5 142.5,139.5C 140.406,141.994 138.406,141.994 136.5,139.5 Z"/></g>
<g><path style="opacity:0.376" fill="#beddfe" d="M 179.5,134.5 C 180.5,135.167 181.5,135.833 182.5,136.5C 178.2,136.815 176.533,139.149 177.5,143.5C 176.833,142.833 176.167,142.167 175.5,141.5C 176.079,138.669 177.412,136.336 179.5,134.5 Z"/></g>
<g><path style="opacity:0.204" fill="#cee4fe" d="M 465.5,137.5 C 466.906,137.973 467.573,138.973 467.5,140.5C 466.094,140.027 465.427,139.027 465.5,137.5 Z"/></g>
<g><path style="opacity:0.875" fill="#9cc6fb" d="M 58.5,139.5 C 57.4918,141.544 56.4918,143.544 55.5,145.5C 54.9036,143.05 55.9036,141.05 58.5,139.5 Z"/></g>
<g><path style="opacity:0.628" fill="#89c2fb" d="M 83.5,138.5 C 84.1386,139.097 84.472,139.93 84.5,141C 83.8528,170.317 83.1862,199.484 82.5,228.5C 82.198,198.475 82.5313,168.475 83.5,138.5 Z"/></g>
<g><path style="opacity:0.329" fill="#bfddfd" d="M 289.5,142.5 C 295.19,143.021 300.856,143.688 306.5,144.5C 305.726,145.147 304.726,145.48 303.5,145.5C 298.555,145.144 293.889,144.144 289.5,142.5 Z"/></g>
<g><path style="opacity:0.945" fill="#95c2fc" d="M 312.5,141.5 C 311.393,143.969 309.393,144.969 306.5,144.5C 308.181,142.992 310.181,141.992 312.5,141.5 Z"/></g>
<g><path style="opacity:0.212" fill="#cee5fe" d="M 467.5,141.5 C 468.906,141.973 469.573,142.973 469.5,144.5C 468.094,144.027 467.427,143.027 467.5,141.5 Z"/></g>
<g><path style="opacity:1" fill="#5fa3f9" d="M 99.5,158.5 C 97.4352,158.483 95.4352,158.15 93.5,157.5C 93.5,154.833 93.5,152.167 93.5,149.5C 93.3284,148.508 93.6618,147.842 94.5,147.5C 95.9063,147.027 96.573,146.027 96.5,144.5C 100.352,141.477 103.019,142.477 104.5,147.5C 103.822,150.544 102.989,153.544 102,156.5C 101.292,157.381 100.458,158.047 99.5,158.5 Z"/></g>
<g><path style="opacity:0.463" fill="#c6e1fe" d="M 178.5,145.5 C 181.821,146.098 182.821,147.765 181.5,150.5C 180.925,148.589 179.925,146.922 178.5,145.5 Z"/></g>
<g><path style="opacity:0.247" fill="#c8e1fd" d="M 96.5,144.5 C 96.573,146.027 95.9063,147.027 94.5,147.5C 94.427,145.973 95.0937,144.973 96.5,144.5 Z"/></g>
<g><path style="opacity:0.941" fill="#a6cdfc" d="M 149.5,143.5 C 149.762,144.978 149.429,146.311 148.5,147.5C 146.591,146.652 144.591,146.318 142.5,146.5C 144.974,145.895 147.307,144.895 149.5,143.5 Z"/></g>
<g><path style="opacity:0.71" fill="#afd4fd" d="M 141.5,147.5 C 141.5,149.5 141.5,151.5 141.5,153.5C 139.269,151.358 139.269,149.358 141.5,147.5 Z"/></g>
<g><path style="opacity:0.008" fill="#cce4fe" d="M 192.5,149.5 C 191.89,151.434 190.89,153.101 189.5,154.5C 189.273,152.067 190.273,150.401 192.5,149.5 Z"/></g>
<g><path style="opacity:1" fill="#60a4f9" d="M 122.5,153.5 C 123.587,158.887 121.254,160.72 115.5,159C 114.944,158.617 114.611,158.117 114.5,157.5C 114.504,151.216 117.171,149.882 122.5,153.5 Z"/></g>
<g><path style="opacity:0.745" fill="#bad9fd" d="M 93.5,149.5 C 93.5,152.167 93.5,154.833 93.5,157.5C 90.8333,154.833 90.8333,152.167 93.5,149.5 Z"/></g>
<g><path style="opacity:1" fill="#4f9df8" d="M 133.5,151.5 C 134.4,156.772 134.733,162.105 134.5,167.5C 133.5,167.833 132.833,168.5 132.5,169.5C 129.336,171.191 127.336,170.191 126.5,166.5C 126.5,162.5 126.5,158.5 126.5,154.5C 127.689,150.67 130.022,149.67 133.5,151.5 Z"/></g>
<g><path style="opacity:0.565" fill="#b1d6fd" d="M 122.5,153.5 C 117.171,149.882 114.504,151.216 114.5,157.5C 112.418,150.854 114.752,148.687 121.5,151C 122.252,151.671 122.586,152.504 122.5,153.5 Z"/></g>
<g><path style="opacity:0.149" fill="#d5eaff" d="M 330.5,153.5 C 330.167,154.167 329.833,154.833 329.5,155.5C 328.243,154.377 328.576,153.711 330.5,153.5 Z"/></g>
<g><path style="opacity:0.898" fill="#a2cbfc" d="M 395.5,151.5 C 395.88,153.698 395.213,155.365 393.5,156.5C 393.796,154.597 394.463,152.93 395.5,151.5 Z"/></g>
<g><path style="opacity:0.906" fill="#9cc6fb" d="M 223.5,152.5 C 224.537,153.93 225.204,155.597 225.5,157.5C 223.787,156.365 223.12,154.698 223.5,152.5 Z"/></g>
<g><path style="opacity:0.024" fill="#d1e7fe" d="M 331.5,156.5 C 333.027,156.427 334.027,157.094 334.5,158.5C 332.973,158.573 331.973,157.906 331.5,156.5 Z"/></g>
<g><path style="opacity:0.976" fill="#a1cafc" d="M 473.5,153.5 C 475.065,155.509 476.065,157.843 476.5,160.5C 474.166,158.824 473.166,156.491 473.5,153.5 Z"/></g>
<g><path style="opacity:0.578" fill="#a4d0fc" d="M 133.5,151.5 C 134.117,151.611 134.617,151.944 135,152.5C 135.816,157.684 135.65,162.684 134.5,167.5C 134.733,162.105 134.4,156.772 133.5,151.5 Z"/></g>
<g><path style="opacity:0.878" fill="#a0cafd" d="M 143.5,154.5 C 144.93,156.455 144.597,158.121 142.5,159.5C 143.038,157.883 143.371,156.216 143.5,154.5 Z"/></g>
<g><path style="opacity:0.145" fill="#d6eafe" d="M 93.5,157.5 C 95.4352,158.15 97.4352,158.483 99.5,158.5C 98.9032,159.139 98.0698,159.472 97,159.5C 95.3009,159.613 94.1342,158.947 93.5,157.5 Z"/></g>
<g><path style="opacity:0.017" fill="#eef5fe" d="M 167.5,157.5 C 169.156,159.06 171.156,160.06 173.5,160.5C 171.167,160.5 168.833,160.5 166.5,160.5C 166.263,159.209 166.596,158.209 167.5,157.5 Z"/></g>
<g><path style="opacity:0.678" fill="#afd4fd" d="M 198.5,160.5 C 196.833,160.5 195.167,160.5 193.5,160.5C 195.167,157.833 196.833,157.833 198.5,160.5 Z"/></g>
<g><path style="opacity:0.949" fill="#a3cbfc" d="M 393.5,156.5 C 393.834,159.491 392.834,161.824 390.5,163.5C 390.935,160.843 391.935,158.509 393.5,156.5 Z"/></g>
<g><path style="opacity:0.702" fill="#b2d6fc" d="M 126.5,154.5 C 126.5,158.5 126.5,162.5 126.5,166.5C 124.297,162.609 124.297,158.609 126.5,154.5 Z"/></g>
<g><path style="opacity:0.227" fill="#c6e1fe" d="M 173.5,160.5 C 178.831,160.421 183.831,161.421 188.5,163.5C 183.291,162.942 178.291,161.942 173.5,160.5 Z"/></g>
<g><path style="opacity:0.016" fill="#d1e7fe" d="M 198.5,160.5 C 199.609,160.557 200.609,160.89 201.5,161.5C 201.5,161.833 201.5,162.167 201.5,162.5C 199.973,162.573 198.973,161.906 198.5,160.5 Z"/></g>
<g><path style="opacity:0.616" fill="#add2fd" d="M 334.5,158.5 C 336.23,159.026 337.564,160.026 338.5,161.5C 336.368,161.446 335.035,160.446 334.5,158.5 Z"/></g>
<g><path style="opacity:0.004" fill="#dcedfe" d="M 422.5,160.5 C 426.79,160.198 430.79,160.864 434.5,162.5C 430.295,162.283 426.295,161.617 422.5,160.5 Z"/></g>
<g><path style="opacity:0.102" fill="#e7f3fe" d="M 191.5,162.5 C 190.947,164.552 189.947,164.885 188.5,163.5C 189.609,163.443 190.609,163.11 191.5,162.5 Z"/></g>
<g><path style="opacity:0.592" fill="#b0d5fd" d="M 434.5,162.5 C 436.786,162.595 438.786,163.262 440.5,164.5C 438.102,164.741 436.102,164.074 434.5,162.5 Z"/></g>
<g><path style="opacity:0.933" fill="#a8cefc" d="M 476.5,160.5 C 478.065,162.509 479.065,164.843 479.5,167.5C 477.166,165.824 476.166,163.491 476.5,160.5 Z"/></g>
<g><path style="opacity:0.945" fill="#9cc6fc" d="M 141.5,162.5 C 141.834,165.491 140.834,167.824 138.5,169.5C 138.935,166.843 139.935,164.509 141.5,162.5 Z"/></g>
<g><path style="opacity:0.643" fill="#c1ddfd" d="M 299.5,165.5 C 302.228,165.171 304.562,165.837 306.5,167.5C 303.933,167.279 301.599,166.612 299.5,165.5 Z"/></g>
<g><path style="opacity:0.294" fill="#c5e2fe" d="M 440.5,164.5 C 442.553,164.402 444.22,165.069 445.5,166.5C 443.447,166.598 441.78,165.931 440.5,164.5 Z"/></g>
<g><path style="opacity:0.263" fill="#c8e3fe" d="M 201.5,162.5 C 203.931,164.046 205.264,166.379 205.5,169.5C 204.833,169.5 204.167,169.5 203.5,169.5C 203.6,166.892 202.933,164.558 201.5,162.5 Z"/></g>
<g><path style="opacity:0.867" fill="#9fcafc" d="M 342.5,165.5 C 343.833,166.167 344.833,167.167 345.5,168.5C 343.5,168.5 342.5,167.5 342.5,165.5 Z"/></g>
<g><path style="opacity:0.796" fill="#b0d3fd" d="M 390.5,163.5 C 390.88,165.698 390.213,167.365 388.5,168.5C 388.796,166.597 389.463,164.93 390.5,163.5 Z"/></g>
<g><path style="opacity:0.839" fill="#a6cefc" d="M 306.5,167.5 C 308.698,167.12 310.365,167.787 311.5,169.5C 309.597,169.204 307.93,168.537 306.5,167.5 Z"/></g>
<g><path style="opacity:0.035" fill="#c6e1fe" d="M 134.5,167.5 C 134.5,168.833 133.833,169.5 132.5,169.5C 132.833,168.5 133.5,167.833 134.5,167.5 Z"/></g>
<g><path style="opacity:0.675" fill="#bcdbfc" d="M 345.5,168.5 C 347.262,169.262 348.262,170.596 348.5,172.5C 346.738,171.738 345.738,170.404 345.5,168.5 Z"/></g>
<g><path style="opacity:0.757" fill="#b5d7fd" d="M 479.5,167.5 C 480.537,168.93 481.204,170.597 481.5,172.5C 479.787,171.365 479.12,169.698 479.5,167.5 Z"/></g>
<g><path style="opacity:0.106" fill="#cbe3fe" d="M 205.5,169.5 C 206.598,170.601 206.765,171.934 206,173.5C 205.283,172.956 204.783,172.289 204.5,171.5C 205.338,171.158 205.672,170.492 205.5,169.5 Z"/></g>
<g><path style="opacity:0.635" fill="#b3d7fd" d="M 315.5,171.5 C 317.027,171.427 318.027,172.094 318.5,173.5C 316.973,173.573 315.973,172.906 315.5,171.5 Z"/></g>
<g><path style="opacity:0.267" fill="#c2e0fe" d="M 455.5,170.5 C 456.573,171.251 456.74,172.251 456,173.5C 455.283,172.956 454.783,172.289 454.5,171.5C 455.167,171.5 455.5,171.167 455.5,170.5 Z"/></g>
<g><path style="opacity:0.702" fill="#badafd" d="M 138.5,169.5 C 138.741,171.898 138.074,173.898 136.5,175.5C 136.595,173.214 137.262,171.214 138.5,169.5 Z"/></g>
<g><path style="opacity:0.918" fill="#aad0fc" d="M 388.5,169.5 C 387.975,173.533 386.642,177.2 384.5,180.5C 385.065,176.463 386.399,172.797 388.5,169.5 Z"/></g>
<g><path style="opacity:0.49" fill="#afd5fd" d="M 348.5,172.5 C 349.906,172.973 350.573,173.973 350.5,175.5C 349.094,175.027 348.427,174.027 348.5,172.5 Z"/></g>
<g><path style="opacity:0.78" fill="#aad1fc" d="M 114.5,176.5 C 112.5,176.5 110.5,176.5 108.5,176.5C 110.5,173.833 112.5,173.833 114.5,176.5 Z"/></g>
<g><path style="opacity:0.922" fill="#a6ccfc" d="M 231.5,172.5 C 232.931,173.78 233.598,175.447 233.5,177.5C 231.787,176.365 231.12,174.698 231.5,172.5 Z"/></g>
<g><path style="opacity:0.62" fill="#c1defd" d="M 320.5,175.5 C 323.833,176.833 326.167,179.167 327.5,182.5C 324.833,180.5 322.5,178.167 320.5,175.5 Z"/></g>
<g><path style="opacity:1" fill="#5aa2f9" d="M 108.5,176.5 C 110.5,176.5 112.5,176.5 114.5,176.5C 115.947,177.134 116.613,178.301 116.5,180C 115.98,184.294 114.98,188.46 113.5,192.5C 110.36,195.377 107.693,195.043 105.5,191.5C 105.724,187.821 106.058,184.154 106.5,180.5C 106.5,180.167 106.5,179.833 106.5,179.5C 107.906,179.027 108.573,178.027 108.5,176.5 Z"/></g>
<g><path style="opacity:0.498" fill="#aad3fd" d="M 350.5,175.5 C 351.906,175.973 352.573,176.973 352.5,178.5C 351.094,178.027 350.427,177.027 350.5,175.5 Z"/></g>
<g><path style="opacity:0.259" fill="#c5e1fd" d="M 108.5,176.5 C 108.573,178.027 107.906,179.027 106.5,179.5C 106.427,177.973 107.094,176.973 108.5,176.5 Z"/></g>
<g><path style="opacity:0.761" fill="#b3d6fd" d="M 136.5,175.5 C 136.741,177.898 136.074,179.898 134.5,181.5C 134.595,179.214 135.262,177.214 136.5,175.5 Z"/></g>
<g><path style="opacity:0.146" fill="#d2eafe" d="M 421.5,180.5 C 417.4,180.237 413.4,180.57 409.5,181.5C 411.048,180.206 413.048,179.539 415.5,179.5C 417.696,179.505 419.696,179.838 421.5,180.5 Z"/></g>
<g><path style="opacity:0.78" fill="#b5d6fd" d="M 233.5,177.5 C 235.405,181.216 236.739,185.216 237.5,189.5C 235.194,185.915 233.861,181.915 233.5,177.5 Z"/></g>
<g><path style="opacity:0.282" fill="#c2dffe" d="M 352.5,178.5 C 353.906,178.973 354.573,179.973 354.5,181.5C 353.094,181.027 352.427,180.027 352.5,178.5 Z"/></g>
<g><path style="opacity:0.851" fill="#a5cdfd" d="M 178.5,181.5 C 181.01,181.054 183.01,181.72 184.5,183.5C 182.302,183.125 180.302,182.458 178.5,181.5 Z"/></g>
<g><path style="opacity:0.694" fill="#c1ddfe" d="M 427.5,181.5 C 430.228,181.171 432.562,181.837 434.5,183.5C 431.933,183.279 429.599,182.612 427.5,181.5 Z"/></g>
<g><path style="opacity:0.776" fill="#bbdafd" d="M 483.5,178.5 C 485.405,182.216 486.739,186.216 487.5,190.5C 485.194,186.915 483.861,182.915 483.5,178.5 Z"/></g>
<g><path style="opacity:0.667" fill="#bfdcfe" d="M 184.5,183.5 C 186.698,183.12 188.365,183.787 189.5,185.5C 187.597,185.204 185.93,184.537 184.5,183.5 Z"/></g>
<g><path style="opacity:0.729" fill="#bcdbfe" d="M 384.5,180.5 C 384.741,182.898 384.074,184.898 382.5,186.5C 382.595,184.214 383.262,182.214 384.5,180.5 Z"/></g>
<g><path style="opacity:0.788" fill="#b2d5fd" d="M 434.5,183.5 C 436.698,183.12 438.365,183.787 439.5,185.5C 437.597,185.204 435.93,184.537 434.5,183.5 Z"/></g>
<g><path style="opacity:0.62" fill="#acd1fc" d="M 327.5,182.5 C 329.446,183.035 330.446,184.368 330.5,186.5C 329.026,185.564 328.026,184.23 327.5,182.5 Z"/></g>
<g><path style="opacity:0.635" fill="#abd2fd" d="M 159.5,184.5 C 161.727,185.401 162.727,187.067 162.5,189.5C 161.11,188.101 160.11,186.434 159.5,184.5 Z"/></g>
<g><path style="opacity:0.165" fill="#d5e9fe" d="M 106.5,180.5 C 106.058,184.154 105.724,187.821 105.5,191.5C 104.226,187.735 104.559,184.069 106.5,180.5 Z"/></g>
<g><path style="opacity:0.216" fill="#d2e9fe" d="M 445.5,188.5 C 447.027,188.427 448.027,189.094 448.5,190.5C 446.973,190.573 445.973,189.906 445.5,188.5 Z"/></g>
<g><path style="opacity:0.353" fill="#c4e1fd" d="M 197.5,189.5 C 199.027,189.427 200.027,190.094 200.5,191.5C 198.973,191.573 197.973,190.906 197.5,189.5 Z"/></g>
<g><path style="opacity:0.69" fill="#a0cafd" d="M 133.5,185.5 C 133.829,188.228 133.163,190.562 131.5,192.5C 131.41,189.848 132.076,187.515 133.5,185.5 Z"/></g>
<g><path style="opacity:0.761" fill="#c3defd" d="M 200.5,191.5 C 204.167,193.167 206.833,195.833 208.5,199.5C 205.5,197.167 202.833,194.5 200.5,191.5 Z"/></g>
<g><path style="opacity:0.38" fill="#bfdefe" d="M 448.5,190.5 C 450.027,190.427 451.027,191.094 451.5,192.5C 449.973,192.573 448.973,191.906 448.5,190.5 Z"/></g>
<g><path style="opacity:0.839" fill="#a9d0fd" d="M 358.5,189.5 C 359.537,190.93 360.204,192.597 360.5,194.5C 358.787,193.365 358.12,191.698 358.5,189.5 Z"/></g>
<g><path style="opacity:0.851" fill="#a9d0fd" d="M 451.5,192.5 C 454.5,193.5 456.5,195.5 457.5,198.5C 455.167,196.833 453.167,194.833 451.5,192.5 Z"/></g>
<g><path style="opacity:0.867" fill="#a7cefc" d="M 237.5,190.5 C 238.738,192.214 239.405,194.214 239.5,196.5C 237.926,194.898 237.259,192.898 237.5,190.5 Z"/></g>
<g><path style="opacity:0.769" fill="#b3d6fd" d="M 487.5,191.5 C 488.924,193.515 489.59,195.848 489.5,198.5C 488.076,196.485 487.41,194.152 487.5,191.5 Z"/></g>
<g><path style="opacity:0.459" fill="#badbfd" d="M 335.5,196.5 C 337.074,198.102 337.741,200.102 337.5,202.5C 336.262,200.786 335.595,198.786 335.5,196.5 Z"/></g>
<g><path style="opacity:0.824" fill="#b5d7fd" d="M 361.5,198.5 C 363.416,202.163 364.416,206.163 364.5,210.5C 362.898,206.761 361.898,202.761 361.5,198.5 Z"/></g>
<g><path style="opacity:0.576" fill="#aad2fd" d="M 380.5,195.5 C 380.706,198.495 380.04,201.162 378.5,203.5C 378.565,200.572 379.232,197.905 380.5,195.5 Z"/></g>
<g><path style="opacity:0.424" fill="#bbdafc" d="M 130.5,196.5 C 130.706,199.495 130.04,202.162 128.5,204.5C 128.565,201.572 129.232,198.905 130.5,196.5 Z"/></g>
<g><path style="opacity:0.89" fill="#aacefc" d="M 211.5,203.5 C 213.048,203.821 213.715,204.821 213.5,206.5C 212.599,205.71 211.932,204.71 211.5,203.5 Z"/></g>
<g><path style="opacity:0.812" fill="#6ab1fa" d="M 294.5,164.5 C 292.833,164.5 291.167,164.5 289.5,164.5C 289.831,186.007 289.497,207.34 288.5,228.5C 288.5,206.833 288.5,185.167 288.5,163.5C 290.735,163.205 292.735,163.539 294.5,164.5 Z"/></g>
<g><path style="opacity:0.51" fill="#b6dafd" d="M 489.5,198.5 C 490.768,200.905 491.435,203.572 491.5,206.5C 489.96,204.162 489.294,201.495 489.5,198.5 Z"/></g>
<g><path style="opacity:0.325" fill="#badafd" d="M 154.5,201.5 C 153.708,210.713 152.375,219.713 150.5,228.5C 150.732,219.207 152.065,210.207 154.5,201.5 Z"/></g>
<g><path style="opacity:0.373" fill="#c7e2fe" d="M 465.5,211.5 C 467.163,213.438 467.829,215.772 467.5,218.5C 466.388,216.401 465.721,214.067 465.5,211.5 Z"/></g>
<g><path style="opacity:0.592" fill="#abd2fc" d="M 339.5,210.5 C 341.078,215.583 341.745,220.916 341.5,226.5C 340.335,221.367 339.668,216.034 339.5,210.5 Z"/></g>
<g><path style="opacity:0.02" fill="#d7ebfe" d="M 149.5,230.5 C 149.573,232.027 148.906,233.027 147.5,233.5C 147.427,231.973 148.094,230.973 149.5,230.5 Z"/></g>
<g><path style="opacity:0.02" fill="#cae5fe" d="M 221.5,230.5 C 223.167,231.5 224.5,232.833 225.5,234.5C 223.167,234.167 221.833,232.833 221.5,230.5 Z"/></g>
<g><path style="opacity:0.769" fill="#a5cffd" d="M 62.5,232.5 C 66.4502,234.879 70.7836,235.879 75.5,235.5C 73.0336,236.634 70.367,236.801 67.5,236C 65.1192,235.777 63.4525,234.61 62.5,232.5 Z"/></g>
<g><path style="opacity:0.541" fill="#add5fd" d="M 129.5,232.5 C 131.027,232.427 132.027,233.094 132.5,234.5C 130.973,234.573 129.973,233.906 129.5,232.5 Z"/></g>
<g><path style="opacity:0.212" fill="#cbe5fd" d="M 269.5,233.5 C 271.027,233.427 272.027,234.094 272.5,235.5C 270.973,235.573 269.973,234.906 269.5,233.5 Z"/></g>
<g><path style="opacity:0.961" fill="#9ac8fc" d="M 345.5,233.5 C 350.103,234.383 354.77,234.717 359.5,234.5C 356.144,236.379 352.477,236.879 348.5,236C 347.058,235.623 346.058,234.79 345.5,233.5 Z"/></g>
<g><path style="opacity:0.224" fill="#c9e5fe" d="M 380.5,233.5 C 382.027,233.427 383.027,234.094 383.5,235.5C 381.973,235.573 380.973,234.906 380.5,233.5 Z"/></g>
<g><path style="opacity:0.141" fill="#d6ebfe" d="M 473.5,233.5 C 475.027,233.427 476.027,234.094 476.5,235.5C 474.973,235.573 473.973,234.906 473.5,233.5 Z"/></g>
</svg>
